<svg width="651" height="549" viewBox="0 0 651 549" fill="none" xmlns="http://www.w3.org/2000/svg">
<rect x="123" width="350" height="40" fill="#D9D9D9"/>
<rect x="3" y="415" width="590" height="10" rx="5" fill="#D9D9D9"/>
<rect y="518" width="202" height="10" rx="5" fill="#D9D9D9"/>
<rect x="373" y="518" width="220" height="10" rx="5" fill="#D9D9D9"/>
<rect x="318" y="40" width="350" height="40" transform="rotate(90 318 40)" fill="#D9D9D9"/>
<rect x="264" y="56" width="334" height="40" transform="rotate(90 264 56)" fill="#D9D9D9"/>
<rect width="334" height="40" transform="matrix(0 1 1 0 332 56)" fill="#D9D9D9"/>
<rect x="123" y="55" width="141" height="40" fill="#D9D9D9"/>
<rect x="333" y="195" width="114" height="40" fill="#D9D9D9"/>
<rect width="141" height="40" transform="matrix(-1 0 0 1 473 55)" fill="#D9D9D9"/>
<rect x="123" y="350" width="141" height="40" fill="#D9D9D9"/>
<rect width="141" height="40" transform="matrix(-1 0 0 1 473 350)" fill="#D9D9D9"/>
<path d="M411.5 138L436.182 181.5H386.818L411.5 138Z" fill="#D9D9D9"/>
<path d="M411.5 293L436.182 249.5H386.818L411.5 293Z" fill="#D9D9D9"/>
<path d="M37.8809 496H11.6895V493.715H20.0391V445.551H16.6113C11.8652 445.609 8.61328 448.598 6.85547 454.516L4.92188 461.195H2.37305L2.72461 443.266H47.0215L47.4609 461.195H44.9121L42.9785 454.516C41.2793 448.598 37.998 445.609 33.1348 445.551H29.4434V493.715H35.5078C36.6211 493.832 37.4121 494.594 37.8809 496ZM76.1133 496H52.6465V493.715H59.6777V445.551H52.6465V443.266H76.1133V445.551H69.082V467.523H94.2188V445.551H87.1875V443.266H110.742V445.551H103.623V493.715H108.369C109.482 493.832 110.273 494.594 110.742 496H87.1875V493.715H94.2188V470.072H69.082V493.715H73.8281C74.1211 493.715 74.4141 493.744 74.707 493.803C75.6445 493.979 76.1133 494.711 76.1133 496ZM158.643 459.525H156.621L155.039 454.604C154.98 454.428 154.922 454.223 154.863 453.988C153.105 448.363 149.912 445.551 145.283 445.551H132.803V467.523H150.469V470.072H132.803V493.715H145.283C145.986 493.715 146.66 493.656 147.305 493.539C150.879 492.836 153.457 489.877 155.039 484.662L156.621 479.74H158.643L158.291 496H116.367V493.715H123.398V445.551H116.367V443.266H158.291L158.643 459.525ZM225.088 459.525H223.066L221.484 454.604C221.426 454.428 221.367 454.223 221.309 453.988C219.551 448.363 216.357 445.551 211.729 445.551H199.248V467.523H216.914V470.072H199.248V493.715H211.729C212.432 493.715 213.105 493.656 213.75 493.539C217.324 492.836 219.902 489.877 221.484 484.662L223.066 479.74H225.088L224.736 496H182.812V493.715H189.844V445.551H182.812V443.266H224.736L225.088 459.525ZM272.461 496H232.119V493.715H239.15V445.551H232.119V443.266H256.025V445.551H248.555V493.715H259.453C260.801 493.715 262.031 493.48 263.145 493.012C265.723 491.898 267.627 489.115 268.857 484.662L270.791 477.807H272.9L272.461 496ZM318.516 459.525H316.494L314.912 454.604C314.854 454.428 314.795 454.223 314.736 453.988C312.979 448.363 309.785 445.551 305.156 445.551H292.676V467.523H310.342V470.072H292.676V493.715H305.156C305.859 493.715 306.533 493.656 307.178 493.539C310.752 492.836 313.33 489.877 314.912 484.662L316.494 479.74H318.516L318.164 496H276.24V493.715H283.271V445.551H276.24V443.266H318.164L318.516 459.525ZM351.387 496.439H350.068C348.896 496.439 347.988 496.234 347.344 495.824C346.523 495.238 345.439 493.188 344.092 489.672L327.041 445.551H322.119V443.266H343.564V445.551H336.533L352.09 485.453L366.24 445.551H359.209V443.266H374.062V445.551H369.668L351.387 496.439ZM429.17 496H408.34V493.715H414.229L407.637 476.664H389.619L383.115 493.715H387.686C388.037 493.715 388.389 493.744 388.74 493.803C389.502 493.979 389.883 494.711 389.883 496H374.062V493.715H379.6L399.111 443.266H403.77L424.16 493.715H426.973C427.266 493.715 427.559 493.744 427.852 493.803C428.73 493.92 429.17 494.652 429.17 496ZM406.582 474.115L398.584 453.285L390.586 474.115H406.582ZM467.051 496H440.859V493.715H449.209V445.551H445.781C441.035 445.609 437.783 448.598 436.025 454.516L434.092 461.195H431.543L431.895 443.266H476.191L476.631 461.195H474.082L472.148 454.516C470.449 448.598 467.168 445.609 462.305 445.551H458.613V493.715H464.678C465.791 493.832 466.582 494.594 467.051 496ZM510.205 442.387C516.416 442.387 521.895 444.145 526.641 447.66C533.438 452.699 536.836 460.053 536.836 469.721C536.836 477.865 534.111 484.516 528.662 489.672C523.506 494.477 517.266 496.879 509.941 496.879C503.555 496.879 497.93 495.004 493.066 491.254C486.445 486.039 483.135 478.744 483.135 469.369C483.135 461.283 485.889 454.691 491.396 449.594C496.553 444.789 502.822 442.387 510.205 442.387ZM510.205 494.418C520.635 494.359 525.879 485.98 525.938 469.281C525.879 453.109 520.547 444.965 509.941 444.848C499.336 444.906 494.004 453.197 493.945 469.721C494.004 486.068 499.424 494.301 510.205 494.418ZM567.246 496H543.779V493.715H550.811V445.551H543.779V443.266H571.113C575.742 443.266 579.668 444.35 582.891 446.518C586.699 449.154 588.604 452.641 588.604 456.977C588.604 458.559 588.34 460.111 587.812 461.635C586.055 466.322 582.188 469.428 576.211 470.951L590.186 493.715H592.646C592.998 493.715 593.32 493.744 593.613 493.803C594.434 493.92 594.844 494.652 594.844 496H580.693L566.982 471.83H560.215V493.715H567.246V496ZM567.422 445.551H560.215V469.281H567.861C570.205 469.281 572.256 468.607 574.014 467.26C576.885 464.975 578.32 461.635 578.32 457.24C578.32 455.424 577.998 453.695 577.354 452.055C575.654 447.719 572.344 445.551 567.422 445.551Z" fill="white"/>
<path d="M228.23 531.488C226.004 532.707 223.719 533.328 221.375 533.352C218.047 533.352 215.363 532.262 213.324 530.082C211.426 527.996 210.477 525.441 210.477 522.418C210.477 519.887 211.18 517.648 212.586 515.703C214.602 512.938 217.508 511.555 221.305 511.555C223.93 511.555 226.191 512.176 228.09 513.418C228.09 512.926 228.113 512.551 228.16 512.293C228.254 511.918 228.582 511.73 229.145 511.73L229.25 518.375H228.266C227.117 514.555 224.902 512.621 221.621 512.574C220.566 512.574 219.617 512.785 218.773 513.207C216.148 514.543 214.836 517.602 214.836 522.383C214.836 522.828 214.848 523.273 214.871 523.719C215.176 529.461 217.367 532.332 221.445 532.332C224.938 532.309 227.258 530.34 228.406 526.426H229.355V533.176C229.098 533.176 228.887 533.152 228.723 533.105C228.371 532.988 228.207 532.449 228.23 531.488ZM243.066 511.555C245.551 511.555 247.742 512.258 249.641 513.664C252.359 515.68 253.719 518.621 253.719 522.488C253.719 525.746 252.629 528.406 250.449 530.469C248.387 532.391 245.891 533.352 242.961 533.352C240.406 533.352 238.156 532.602 236.211 531.102C233.562 529.016 232.238 526.098 232.238 522.348C232.238 519.113 233.34 516.477 235.543 514.438C237.605 512.516 240.113 511.555 243.066 511.555ZM243.066 532.367C247.238 532.344 249.336 528.992 249.359 522.312C249.336 515.844 247.203 512.586 242.961 512.539C238.719 512.562 236.586 515.879 236.562 522.488C236.586 529.027 238.754 532.32 243.066 532.367ZM283.004 511.906V512.82H280.191V532.086H282.09C282.207 532.086 282.324 532.098 282.441 532.121C282.816 532.191 283.004 532.484 283.004 533H273.758V532.086H276.57V515.211L268.695 533.246H267.992L260.398 517.672V532.086H262.262C262.707 532.133 263.023 532.438 263.211 533H256.145V532.086H258.957V512.82H256.145V511.906H261.699L269.539 528.289L276.57 511.906H283.004ZM294.605 512.82H291.477V522.664H294.184C297.02 522.594 298.508 520.93 298.648 517.672C298.648 517.086 298.59 516.535 298.473 516.02C298.004 513.887 296.715 512.82 294.605 512.82ZM295.027 533H284.902V532.086H287.715V512.82H284.902V511.906H295.836C297.359 511.906 298.672 512.164 299.773 512.68C301.766 513.641 302.762 515.258 302.762 517.531C302.762 518.492 302.574 519.359 302.199 520.133C301.051 522.5 298.484 523.684 294.5 523.684H291.477V532.086H294.113C294.23 532.086 294.348 532.098 294.465 532.121C294.84 532.191 295.027 532.484 295.027 533ZM325.578 533H317.246V532.086H319.602L316.965 525.266H309.758L307.156 532.086H308.984C309.125 532.086 309.266 532.098 309.406 532.121C309.711 532.191 309.863 532.484 309.863 533H303.535V532.086H305.75L313.555 511.906H315.418L323.574 532.086H324.699C324.816 532.086 324.934 532.098 325.051 532.121C325.402 532.168 325.578 532.461 325.578 533ZM316.543 524.246L313.344 515.914L310.145 524.246H316.543ZM341.574 512.82V511.906H348.746V512.82H345.934V532.824L344.141 533.176L330.465 516.477V532.086H332.504C332.949 532.133 333.266 532.438 333.453 533H326.211V532.086H329.023V512.82H326.211V511.906H331.52L344.492 527.727V512.82H341.574ZM363.898 533H354.336V532.086H357.219V524.387L350.715 512.82H348.887V511.906H357.605V512.82H354.934L360.348 522.875L365.445 512.82H362.633V511.906H368.855C368.855 512.023 368.844 512.141 368.82 512.258C368.75 512.633 368.457 512.82 367.941 512.82C367.168 512.844 366.547 513.172 366.078 513.805L361.016 524.07V532.086H362.949C363.395 532.133 363.711 532.438 363.898 533Z" fill="white"/>
</svg>
