<svg width="1962" height="1604" viewBox="0 0 1962 1604" fill="none" xmlns="http://www.w3.org/2000/svg">
<rect x="779" y="527" width="350" height="40" fill="#D9D9D9"/>
<rect x="659" y="942" width="590" height="10" rx="5" fill="#D9D9D9"/>
<rect x="656" y="1045" width="202" height="10" rx="5" fill="#D9D9D9"/>
<rect x="1029" y="1045" width="220" height="10" rx="5" fill="#D9D9D9"/>
<rect x="974" y="567" width="310" height="40" transform="rotate(90 974 567)" fill="#D9D9D9"/>
<rect x="920" y="583" width="334" height="40" transform="rotate(90 920 583)" fill="#D9D9D9"/>
<rect width="334" height="40" transform="matrix(0 1 1 0 988 583)" fill="#D9D9D9"/>
<rect x="779" y="582" width="141" height="40" fill="#D9D9D9"/>
<rect x="989" y="722" width="114" height="40" fill="#D9D9D9"/>
<rect width="141" height="40" transform="matrix(-1 0 0 1 1129 582)" fill="#D9D9D9"/>
<rect x="779" y="877" width="141" height="40" fill="#D9D9D9"/>
<rect width="141" height="40" transform="matrix(-1 0 0 1 1129 877)" fill="#D9D9D9"/>
<path d="M1067.5 665L1092.18 708.5H1042.82L1067.5 665Z" fill="#D9D9D9"/>
<path d="M1067.5 820L1092.18 776.5H1042.82L1067.5 820Z" fill="#D9D9D9"/>
<path d="M693.881 1023H667.689V1020.71H676.039V972.551H672.611C667.865 972.609 664.613 975.598 662.855 981.516L660.922 988.195H658.373L658.725 970.266H703.021L703.461 988.195H700.912L698.979 981.516C697.279 975.598 693.998 972.609 689.135 972.551H685.443V1020.71H691.508C692.621 1020.83 693.412 1021.59 693.881 1023ZM732.113 1023H708.646V1020.71H715.678V972.551H708.646V970.266H732.113V972.551H725.082V994.523H750.219V972.551H743.188V970.266H766.742V972.551H759.623V1020.71H764.369C765.482 1020.83 766.273 1021.59 766.742 1023H743.188V1020.71H750.219V997.072H725.082V1020.71H729.828C730.121 1020.71 730.414 1020.74 730.707 1020.8C731.645 1020.98 732.113 1021.71 732.113 1023ZM814.643 986.525H812.621L811.039 981.604C810.98 981.428 810.922 981.223 810.863 980.988C809.105 975.363 805.912 972.551 801.283 972.551H788.803V994.523H806.469V997.072H788.803V1020.71H801.283C801.986 1020.71 802.66 1020.66 803.305 1020.54C806.879 1019.84 809.457 1016.88 811.039 1011.66L812.621 1006.74H814.643L814.291 1023H772.367V1020.71H779.398V972.551H772.367V970.266H814.291L814.643 986.525ZM881.088 986.525H879.066L877.484 981.604C877.426 981.428 877.367 981.223 877.309 980.988C875.551 975.363 872.357 972.551 867.729 972.551H855.248V994.523H872.914V997.072H855.248V1020.71H867.729C868.432 1020.71 869.105 1020.66 869.75 1020.54C873.324 1019.84 875.902 1016.88 877.484 1011.66L879.066 1006.74H881.088L880.736 1023H838.812V1020.71H845.844V972.551H838.812V970.266H880.736L881.088 986.525ZM928.461 1023H888.119V1020.71H895.15V972.551H888.119V970.266H912.025V972.551H904.555V1020.71H915.453C916.801 1020.71 918.031 1020.48 919.145 1020.01C921.723 1018.9 923.627 1016.12 924.857 1011.66L926.791 1004.81H928.9L928.461 1023ZM974.516 986.525H972.494L970.912 981.604C970.854 981.428 970.795 981.223 970.736 980.988C968.979 975.363 965.785 972.551 961.156 972.551H948.676V994.523H966.342V997.072H948.676V1020.71H961.156C961.859 1020.71 962.533 1020.66 963.178 1020.54C966.752 1019.84 969.33 1016.88 970.912 1011.66L972.494 1006.74H974.516L974.164 1023H932.24V1020.71H939.271V972.551H932.24V970.266H974.164L974.516 986.525ZM1007.39 1023.44H1006.07C1004.9 1023.44 1003.99 1023.23 1003.34 1022.82C1002.52 1022.24 1001.44 1020.19 1000.09 1016.67L983.041 972.551H978.119V970.266H999.564V972.551H992.533L1008.09 1012.45L1022.24 972.551H1015.21V970.266H1030.06V972.551H1025.67L1007.39 1023.44ZM1085.17 1023H1064.34V1020.71H1070.23L1063.64 1003.66H1045.62L1039.12 1020.71H1043.69C1044.04 1020.71 1044.39 1020.74 1044.74 1020.8C1045.5 1020.98 1045.88 1021.71 1045.88 1023H1030.06V1020.71H1035.6L1055.11 970.266H1059.77L1080.16 1020.71H1082.97C1083.27 1020.71 1083.56 1020.74 1083.85 1020.8C1084.73 1020.92 1085.17 1021.65 1085.17 1023ZM1062.58 1001.12L1054.58 980.285L1046.59 1001.12H1062.58ZM1123.05 1023H1096.86V1020.71H1105.21V972.551H1101.78C1097.04 972.609 1093.78 975.598 1092.03 981.516L1090.09 988.195H1087.54L1087.89 970.266H1132.19L1132.63 988.195H1130.08L1128.15 981.516C1126.45 975.598 1123.17 972.609 1118.3 972.551H1114.61V1020.71H1120.68C1121.79 1020.83 1122.58 1021.59 1123.05 1023ZM1166.21 969.387C1172.42 969.387 1177.89 971.145 1182.64 974.66C1189.44 979.699 1192.84 987.053 1192.84 996.721C1192.84 1004.87 1190.11 1011.52 1184.66 1016.67C1179.51 1021.48 1173.27 1023.88 1165.94 1023.88C1159.55 1023.88 1153.93 1022 1149.07 1018.25C1142.45 1013.04 1139.13 1005.74 1139.13 996.369C1139.13 988.283 1141.89 981.691 1147.4 976.594C1152.55 971.789 1158.82 969.387 1166.21 969.387ZM1166.21 1021.42C1176.63 1021.36 1181.88 1012.98 1181.94 996.281C1181.88 980.109 1176.55 971.965 1165.94 971.848C1155.34 971.906 1150 980.197 1149.95 996.721C1150 1013.07 1155.42 1021.3 1166.21 1021.42ZM1223.25 1023H1199.78V1020.71H1206.81V972.551H1199.78V970.266H1227.11C1231.74 970.266 1235.67 971.35 1238.89 973.518C1242.7 976.154 1244.6 979.641 1244.6 983.977C1244.6 985.559 1244.34 987.111 1243.81 988.635C1242.05 993.322 1238.19 996.428 1232.21 997.951L1246.19 1020.71H1248.65C1249 1020.71 1249.32 1020.74 1249.61 1020.8C1250.43 1020.92 1250.84 1021.65 1250.84 1023H1236.69L1222.98 998.83H1216.21V1020.71H1223.25V1023ZM1223.42 972.551H1216.21V996.281H1223.86C1226.21 996.281 1228.26 995.607 1230.01 994.26C1232.88 991.975 1234.32 988.635 1234.32 984.24C1234.32 982.424 1234 980.695 1233.35 979.055C1231.65 974.719 1228.34 972.551 1223.42 972.551Z" fill="white"/>
<path d="M884.23 1058.49C882.004 1059.71 879.719 1060.33 877.375 1060.35C874.047 1060.35 871.363 1059.26 869.324 1057.08C867.426 1055 866.477 1052.44 866.477 1049.42C866.477 1046.89 867.18 1044.65 868.586 1042.7C870.602 1039.94 873.508 1038.55 877.305 1038.55C879.93 1038.55 882.191 1039.18 884.09 1040.42C884.09 1039.93 884.113 1039.55 884.16 1039.29C884.254 1038.92 884.582 1038.73 885.145 1038.73L885.25 1045.38H884.266C883.117 1041.55 880.902 1039.62 877.621 1039.57C876.566 1039.57 875.617 1039.79 874.773 1040.21C872.148 1041.54 870.836 1044.6 870.836 1049.38C870.836 1049.83 870.848 1050.27 870.871 1050.72C871.176 1056.46 873.367 1059.33 877.445 1059.33C880.938 1059.31 883.258 1057.34 884.406 1053.43H885.355V1060.18C885.098 1060.18 884.887 1060.15 884.723 1060.11C884.371 1059.99 884.207 1059.45 884.23 1058.49ZM899.066 1038.55C901.551 1038.55 903.742 1039.26 905.641 1040.66C908.359 1042.68 909.719 1045.62 909.719 1049.49C909.719 1052.75 908.629 1055.41 906.449 1057.47C904.387 1059.39 901.891 1060.35 898.961 1060.35C896.406 1060.35 894.156 1059.6 892.211 1058.1C889.562 1056.02 888.238 1053.1 888.238 1049.35C888.238 1046.11 889.34 1043.48 891.543 1041.44C893.605 1039.52 896.113 1038.55 899.066 1038.55ZM899.066 1059.37C903.238 1059.34 905.336 1055.99 905.359 1049.31C905.336 1042.84 903.203 1039.59 898.961 1039.54C894.719 1039.56 892.586 1042.88 892.562 1049.49C892.586 1056.03 894.754 1059.32 899.066 1059.37ZM939.004 1038.91V1039.82H936.191V1059.09H938.09C938.207 1059.09 938.324 1059.1 938.441 1059.12C938.816 1059.19 939.004 1059.48 939.004 1060H929.758V1059.09H932.57V1042.21L924.695 1060.25H923.992L916.398 1044.67V1059.09H918.262C918.707 1059.13 919.023 1059.44 919.211 1060H912.145V1059.09H914.957V1039.82H912.145V1038.91H917.699L925.539 1055.29L932.57 1038.91H939.004ZM950.605 1039.82H947.477V1049.66H950.184C953.02 1049.59 954.508 1047.93 954.648 1044.67C954.648 1044.09 954.59 1043.54 954.473 1043.02C954.004 1040.89 952.715 1039.82 950.605 1039.82ZM951.027 1060H940.902V1059.09H943.715V1039.82H940.902V1038.91H951.836C953.359 1038.91 954.672 1039.16 955.773 1039.68C957.766 1040.64 958.762 1042.26 958.762 1044.53C958.762 1045.49 958.574 1046.36 958.199 1047.13C957.051 1049.5 954.484 1050.68 950.5 1050.68H947.477V1059.09H950.113C950.23 1059.09 950.348 1059.1 950.465 1059.12C950.84 1059.19 951.027 1059.48 951.027 1060ZM981.578 1060H973.246V1059.09H975.602L972.965 1052.27H965.758L963.156 1059.09H964.984C965.125 1059.09 965.266 1059.1 965.406 1059.12C965.711 1059.19 965.863 1059.48 965.863 1060H959.535V1059.09H961.75L969.555 1038.91H971.418L979.574 1059.09H980.699C980.816 1059.09 980.934 1059.1 981.051 1059.12C981.402 1059.17 981.578 1059.46 981.578 1060ZM972.543 1051.25L969.344 1042.91L966.145 1051.25H972.543ZM997.574 1039.82V1038.91H1004.75V1039.82H1001.93V1059.82L1000.14 1060.18L986.465 1043.48V1059.09H988.504C988.949 1059.13 989.266 1059.44 989.453 1060H982.211V1059.09H985.023V1039.82H982.211V1038.91H987.52L1000.49 1054.73V1039.82H997.574ZM1019.9 1060H1010.34V1059.09H1013.22V1051.39L1006.71 1039.82H1004.89V1038.91H1013.61V1039.82H1010.93L1016.35 1049.88L1021.45 1039.82H1018.63V1038.91H1024.86C1024.86 1039.02 1024.84 1039.14 1024.82 1039.26C1024.75 1039.63 1024.46 1039.82 1023.94 1039.82C1023.17 1039.84 1022.55 1040.17 1022.08 1040.8L1017.02 1051.07V1059.09H1018.95C1019.39 1059.13 1019.71 1059.44 1019.9 1060Z" fill="white"/>
</svg>
