<svg width="966" height="68" viewBox="0 0 966 68" fill="none" xmlns="http://www.w3.org/2000/svg">
<path d="M50.905 1.643L52.83 20.354C49.981 14.271 45.592 12.577 38.431 12.577H31.963V53.926C31.963 61.01 33.195 64.398 35.428 66.4H17.564C19.72 64.398 21.029 61.01 21.029 53.926V14.117C21.029 13.578 20.952 13.116 20.952 12.577H14.484C7.39996 12.577 2.93396 14.271 0.0849609 20.354L2.00996 1.643H50.905ZM103.468 19.584V55.235C103.468 61.626 104.623 64.629 106.548 66.4H90.5317C92.5337 64.629 93.6117 61.626 93.6117 55.235V41.837L68.7407 37.756V55.235C68.7407 61.626 69.8187 64.629 71.8207 66.4H55.8047C57.8067 64.629 58.8847 61.626 58.8847 55.235V19.584C58.8847 13.116 57.8067 10.113 55.8047 8.342H71.8207C69.8187 10.113 68.7407 13.116 68.7407 19.584V36.909L93.6117 32.443V19.584C93.6117 13.116 92.5337 10.113 90.5317 8.342H106.548C104.623 10.113 103.468 13.116 103.468 19.584ZM122.581 56.621H140.06C146.451 56.621 150.378 55.081 152.996 49.614L151.225 66.4H109.645C111.647 64.629 112.725 61.626 112.725 55.235V19.584C112.725 13.116 111.647 10.113 109.645 8.342H149.454L151.148 25.205C148.607 19.661 144.68 18.198 138.212 18.198H122.581V37.14L142.524 32.135V42.684L122.581 38.295V56.621ZM193.524 55.466H213.005C220.166 55.466 224.555 53.772 227.404 47.612L225.479 66.4H179.125C181.281 64.398 182.513 61.01 182.513 53.926V14.117C182.513 6.956 181.281 3.645 179.125 1.643H223.477L225.402 20.354C222.553 14.271 218.164 12.577 211.003 12.577H193.524V33.752L215.777 28.131V39.912L193.524 34.984V55.466ZM243.419 56.621H259.435C265.903 56.621 269.83 55.081 272.371 49.614L270.677 66.4H230.483C232.485 64.629 233.563 61.626 233.563 55.235V19.584C233.563 13.116 232.485 10.113 230.483 8.342H246.499C244.497 10.113 243.419 13.116 243.419 19.584V56.621ZM288.236 56.621H305.715C312.106 56.621 316.033 55.081 318.651 49.614L316.88 66.4H275.3C277.302 64.629 278.38 61.626 278.38 55.235V19.584C278.38 13.116 277.302 10.113 275.3 8.342H315.109L316.803 25.205C314.262 19.661 310.335 18.198 303.867 18.198H288.236V37.14L308.179 32.135V42.684L288.236 38.295V56.621ZM354.108 55.235C352.953 58.623 352.491 61.087 352.491 62.935C352.491 64.475 352.876 65.553 353.492 66.4H337.399C338.015 65.63 338.323 64.475 338.323 63.012C338.323 61.01 337.784 58.392 336.706 55.004L324.694 19.969C322.769 14.117 320.69 10.19 318.688 8.342H334.704C333.78 9.112 333.318 10.421 333.318 12.192C333.318 14.117 333.857 16.658 334.935 19.815L345.484 52.386L355.879 20.2C356.957 16.735 357.419 14.194 357.419 12.346C357.419 10.421 356.957 9.189 356.11 8.342H372.126C370.124 9.805 368.507 13.193 366.12 20.277L354.108 55.235ZM396.142 19.507L408.077 54.465C410.541 61.549 412.158 64.937 414.083 66.4H398.067C398.914 65.553 399.376 64.321 399.376 62.396C399.376 60.548 398.914 58.007 397.836 54.542L396.835 51.385L379.279 47.612L376.892 54.927C375.891 58.084 375.275 60.625 375.275 62.55C375.275 64.321 375.737 65.553 376.738 66.4H360.722C362.647 64.552 364.726 60.625 366.651 54.773L378.663 19.815C379.818 16.427 380.357 13.732 380.357 11.73C380.357 10.19 380.049 9.112 379.433 8.342H395.449C394.833 9.112 394.448 10.267 394.448 11.73C394.448 13.578 394.987 16.119 396.142 19.507ZM379.433 47.227L394.294 43.608L387.441 22.356L379.433 47.227ZM448.791 8.342L450.562 25.205C447.944 19.661 444.017 18.198 437.626 18.198H431.774V55.235C431.774 61.626 432.929 64.629 434.854 66.4H418.838C420.84 64.629 421.918 61.626 421.918 55.235V18.198H416.143C409.752 18.198 405.748 19.661 403.207 25.205L404.978 8.342H448.791ZM480.103 7.649C497.967 7.649 507.669 21.355 507.669 37.371C507.669 53.387 497.967 67.093 480.103 67.093C462.162 67.093 452.46 53.387 452.46 37.371C452.46 21.355 462.162 7.649 480.103 7.649ZM480.103 57.314C492.577 57.314 497.89 47.997 497.89 37.371C497.89 26.745 492.577 17.505 480.103 17.505C467.552 17.505 462.239 26.745 462.239 37.371C462.239 47.997 467.552 57.314 480.103 57.314ZM537.899 43.685H524.347V55.235C524.347 61.626 525.502 64.629 527.504 66.4H511.488C513.413 64.629 514.568 61.626 514.568 55.235V19.584C514.568 13.116 513.413 10.113 511.488 8.342H538.9C544.906 8.342 549.449 10.421 552.606 13.732C555.686 17.043 557.226 21.663 557.226 26.745C557.226 36.909 550.912 43.685 538.9 43.685H538.284L558.227 66.4H542.211L537.899 43.685ZM524.347 19.584V43.069C546.292 41.298 547.447 28.593 547.447 26.899V26.745C547.447 22.048 545.445 18.198 538.9 18.198H524.424C524.347 18.66 524.347 19.045 524.347 19.584ZM635.787 25.744C633.708 21.509 630.859 18.198 627.317 15.657C623.698 13.193 619.694 11.884 615.459 11.807H615.305C610.685 11.807 606.989 12.885 604.14 14.964C601.291 17.12 599.212 19.892 597.903 23.28C596.594 26.745 595.901 30.441 595.901 34.368C595.901 41.991 597.826 47.843 601.753 51.924C605.68 56.005 610.762 58.161 617.076 58.392H617.846C622.312 58.392 626.624 57.237 630.705 54.927C634.786 52.617 638.02 49.537 640.253 45.61C638.79 51.385 636.557 55.851 633.554 59.008C630.474 62.165 627.163 64.244 623.698 65.399C620.156 66.554 616.999 67.17 614.304 67.17C607.99 67.17 602.6 65.63 598.211 62.627C593.745 59.624 590.357 55.543 587.97 50.461C585.583 45.456 584.428 39.912 584.428 33.983C584.428 28.054 585.583 22.51 587.97 17.505C590.357 12.5 593.822 8.419 598.442 5.416C602.985 2.413 608.606 0.872998 615.305 0.872998C622.62 0.872998 628.934 2.721 634.247 6.34L635.787 25.744ZM671.174 7.649C689.038 7.649 698.74 21.355 698.74 37.371C698.74 53.387 689.038 67.093 671.174 67.093C653.233 67.093 643.531 53.387 643.531 37.371C643.531 21.355 653.233 7.649 671.174 7.649ZM671.174 57.314C683.648 57.314 688.961 47.997 688.961 37.371C688.961 26.745 683.648 17.505 671.174 17.505C658.623 17.505 653.31 26.745 653.31 37.371C653.31 47.997 658.623 57.314 671.174 57.314ZM758.81 62.55C759.349 64.321 760.119 65.553 761.12 66.4H745.104C747.029 64.629 748.184 61.626 748.184 55.235V33.136L732.553 50.307L716.999 33.136V55.235C716.999 58.392 717.23 60.779 717.769 62.55C718.308 64.321 719.078 65.553 720.079 66.4H704.063C706.065 64.629 707.143 61.626 707.143 55.235V19.584C707.143 16.35 706.912 13.963 706.373 12.192C705.834 10.421 705.064 9.266 704.063 8.342H717.307L732.553 45.764L747.876 8.342H761.12C759.118 10.113 757.963 13.116 757.963 19.584V55.235C757.963 58.392 758.271 60.779 758.81 62.55ZM805.338 13.732C808.418 17.043 810.035 21.663 810.035 26.745C810.035 36.909 803.644 43.685 791.632 43.685H777.156V55.235C777.156 61.626 778.234 64.629 780.236 66.4H764.22C766.145 64.629 767.3 61.626 767.3 55.235V19.584C767.3 13.116 766.145 10.113 764.22 8.342H791.632C797.638 8.342 802.258 10.421 805.338 13.732ZM777.156 18.198V43.069C799.024 41.298 800.179 28.593 800.179 26.899V26.745C800.179 22.048 798.177 18.198 791.632 18.198H777.156ZM841.223 19.507L853.158 54.465C855.622 61.549 857.239 64.937 859.164 66.4H843.148C843.995 65.553 844.457 64.321 844.457 62.396C844.457 60.548 843.995 58.007 842.917 54.542L841.916 51.385L824.36 47.612L821.973 54.927C820.972 58.084 820.356 60.625 820.356 62.55C820.356 64.321 820.818 65.553 821.819 66.4H805.803C807.728 64.552 809.807 60.625 811.732 54.773L823.744 19.815C824.899 16.427 825.438 13.732 825.438 11.73C825.438 10.19 825.13 9.112 824.514 8.342H840.53C839.914 9.112 839.529 10.267 839.529 11.73C839.529 13.578 840.068 16.119 841.223 19.507ZM824.514 47.227L839.375 43.608L832.522 22.356L824.514 47.227ZM907.728 62.55C908.19 64.321 909.037 65.553 909.961 66.4H897.718L874.233 31.827V55.235C874.233 58.392 874.541 60.779 875.08 62.55C875.542 64.321 876.389 65.553 877.313 66.4H861.297C863.299 64.629 864.377 61.626 864.377 55.235V19.584C864.377 16.35 864.146 13.963 863.607 12.192C863.068 10.421 862.298 9.266 861.297 8.342H875.773L897.025 58.623V19.584C897.025 16.35 896.794 13.963 896.255 12.192C895.716 10.421 894.946 9.266 893.945 8.342H909.961C908.036 10.113 906.881 13.116 906.881 19.584V55.235C906.881 58.392 907.189 60.779 907.728 62.55ZM947.547 8.342H965.026C963.717 9.266 962.485 10.344 961.099 12.192C959.636 14.117 958.019 16.812 955.863 20.97L944.159 42.684L943.543 43.916V55.235C943.543 58.392 943.774 60.779 944.313 62.55C944.852 64.321 945.622 65.553 946.623 66.4H930.607C932.532 64.629 933.687 61.626 933.687 55.235V43.916L932.994 42.684L921.367 20.97C919.211 16.812 917.594 14.117 916.131 12.192C914.668 10.344 913.513 9.266 912.204 8.342H929.606C929.067 9.035 928.682 9.959 928.682 11.191C928.682 13.039 929.529 15.657 931.608 19.353L938.615 32.289L945.545 19.353C947.701 15.734 948.471 13.039 948.471 11.191C948.471 9.959 948.163 9.035 947.547 8.342Z" fill="black"/>
</svg>
