<svg width="1962" height="1604" viewBox="0 0 1962 1604" fill="none" xmlns="http://www.w3.org/2000/svg">
<rect x="0.5" y="0.5" width="1961" height="1603" stroke="#AAAAAA"/>
<rect x="779" y="527" width="350" height="40" fill="#D9D9D9"/>
<rect x="659" y="942" width="590" height="10" rx="5" fill="#D9D9D9"/>
<rect x="656" y="1045" width="202" height="10" rx="5" fill="#D9D9D9"/>
<rect x="1029" y="1045" width="220" height="10" rx="5" fill="#D9D9D9"/>
<rect x="974" y="567" width="350" height="40" transform="rotate(90 974 567)" fill="#D9D9D9"/>
<rect x="779" y="582" width="141" height="40" fill="#D9D9D9"/>
<rect x="989" y="722" width="114" height="40" fill="#D9D9D9"/>
<rect width="141" height="40" transform="matrix(-1 0 0 1 1129 582)" fill="#D9D9D9"/>
<rect x="779" y="877" width="141" height="40" fill="#D9D9D9"/>
<rect width="141" height="40" transform="matrix(-1 0 0 1 1129 877)" fill="#D9D9D9"/>
<path d="M1067.5 665L1092.18 708.5H1042.82L1067.5 665Z" fill="#D9D9D9"/>
<path d="M1067.5 820L1092.18 776.5H1042.82L1067.5 820Z" fill="#D9D9D9"/>
<path d="M693.881 1023H667.689V1020.71H676.039V972.551H672.611C667.865 972.609 664.613 975.598 662.855 981.516L660.922 988.195H658.373L658.725 970.266H703.021L703.461 988.195H700.912L698.979 981.516C697.279 975.598 693.998 972.609 689.135 972.551H685.443V1020.71H691.508C692.621 1020.83 693.412 1021.59 693.881 1023ZM732.113 1023H708.646V1020.71H715.678V972.551H708.646V970.266H732.113V972.551H725.082V994.523H750.219V972.551H743.188V970.266H766.742V972.551H759.623V1020.71H764.369C765.482 1020.83 766.273 1021.59 766.742 1023H743.188V1020.71H750.219V997.072H725.082V1020.71H729.828C730.121 1020.71 730.414 1020.74 730.707 1020.8C731.645 1020.98 732.113 1021.71 732.113 1023ZM814.643 986.525H812.621L811.039 981.604C810.98 981.428 810.922 981.223 810.863 980.988C809.105 975.363 805.912 972.551 801.283 972.551H788.803V994.523H806.469V997.072H788.803V1020.71H801.283C801.986 1020.71 802.66 1020.66 803.305 1020.54C806.879 1019.84 809.457 1016.88 811.039 1011.66L812.621 1006.74H814.643L814.291 1023H772.367V1020.71H779.398V972.551H772.367V970.266H814.291L814.643 986.525ZM881.088 986.525H879.066L877.484 981.604C877.426 981.428 877.367 981.223 877.309 980.988C875.551 975.363 872.357 972.551 867.729 972.551H855.248V994.523H872.914V997.072H855.248V1020.71H867.729C868.432 1020.71 869.105 1020.66 869.75 1020.54C873.324 1019.84 875.902 1016.88 877.484 1011.66L879.066 1006.74H881.088L880.736 1023H838.812V1020.71H845.844V972.551H838.812V970.266H880.736L881.088 986.525ZM928.461 1023H888.119V1020.71H895.15V972.551H888.119V970.266H912.025V972.551H904.555V1020.71H915.453C916.801 1020.71 918.031 1020.48 919.145 1020.01C921.723 1018.9 923.627 1016.12 924.857 1011.66L926.791 1004.81H928.9L928.461 1023ZM974.516 986.525H972.494L970.912 981.604C970.854 981.428 970.795 981.223 970.736 980.988C968.979 975.363 965.785 972.551 961.156 972.551H948.676V994.523H966.342V997.072H948.676V1020.71H961.156C961.859 1020.71 962.533 1020.66 963.178 1020.54C966.752 1019.84 969.33 1016.88 970.912 1011.66L972.494 1006.74H974.516L974.164 1023H932.24V1020.71H939.271V972.551H932.24V970.266H974.164L974.516 986.525ZM1007.39 1023.44H1006.07C1004.9 1023.44 1003.99 1023.23 1003.34 1022.82C1002.52 1022.24 1001.44 1020.19 1000.09 1016.67L983.041 972.551H978.119V970.266H999.564V972.551H992.533L1008.09 1012.45L1022.24 972.551H1015.21V970.266H1030.06V972.551H1025.67L1007.39 1023.44ZM1085.17 1023H1064.34V1020.71H1070.23L1063.64 1003.66H1045.62L1039.12 1020.71H1043.69C1044.04 1020.71 1044.39 1020.74 1044.74 1020.8C1045.5 1020.98 1045.88 1021.71 1045.88 1023H1030.06V1020.71H1035.6L1055.11 970.266H1059.77L1080.16 1020.71H1082.97C1083.27 1020.71 1083.56 1020.74 1083.85 1020.8C1084.73 1020.92 1085.17 1021.65 1085.17 1023ZM1062.58 1001.12L1054.58 980.285L1046.59 1001.12H1062.58ZM1123.05 1023H1096.86V1020.71H1105.21V972.551H1101.78C1097.04 972.609 1093.78 975.598 1092.03 981.516L1090.09 988.195H1087.54L1087.89 970.266H1132.19L1132.63 988.195H1130.08L1128.15 981.516C1126.45 975.598 1123.17 972.609 1118.3 972.551H1114.61V1020.71H1120.68C1121.79 1020.83 1122.58 1021.59 1123.05 1023ZM1166.21 969.387C1172.42 969.387 1177.89 971.145 1182.64 974.66C1189.44 979.699 1192.84 987.053 1192.84 996.721C1192.84 1004.87 1190.11 1011.52 1184.66 1016.67C1179.51 1021.48 1173.27 1023.88 1165.94 1023.88C1159.55 1023.88 1153.93 1022 1149.07 1018.25C1142.45 1013.04 1139.13 1005.74 1139.13 996.369C1139.13 988.283 1141.89 981.691 1147.4 976.594C1152.55 971.789 1158.82 969.387 1166.21 969.387ZM1166.21 1021.42C1176.63 1021.36 1181.88 1012.98 1181.94 996.281C1181.88 980.109 1176.55 971.965 1165.94 971.848C1155.34 971.906 1150 980.197 1149.95 996.721C1150 1013.07 1155.42 1021.3 1166.21 1021.42ZM1223.25 1023H1199.78V1020.71H1206.81V972.551H1199.78V970.266H1227.11C1231.74 970.266 1235.67 971.35 1238.89 973.518C1242.7 976.154 1244.6 979.641 1244.6 983.977C1244.6 985.559 1244.34 987.111 1243.81 988.635C1242.05 993.322 1238.19 996.428 1232.21 997.951L1246.19 1020.71H1248.65C1249 1020.71 1249.32 1020.74 1249.61 1020.8C1250.43 1020.92 1250.84 1021.65 1250.84 1023H1236.69L1222.98 998.83H1216.21V1020.71H1223.25V1023ZM1223.42 972.551H1216.21V996.281H1223.86C1226.21 996.281 1228.26 995.607 1230.01 994.26C1232.88 991.975 1234.32 988.635 1234.32 984.24C1234.32 982.424 1234 980.695 1233.35 979.055C1231.65 974.719 1228.34 972.551 1223.42 972.551Z" fill="white"/>
<path d="M877.206 1062.41C875.143 1062.41 873.319 1061.92 871.732 1060.95C870.145 1059.95 868.91 1058.54 868.026 1056.73C867.142 1054.89 866.7 1052.72 866.7 1050.2C866.7 1047.78 867.142 1045.63 868.026 1043.78C868.933 1041.89 870.202 1040.43 871.834 1039.39C873.489 1038.32 875.415 1037.79 877.614 1037.79C878.747 1037.79 879.779 1037.91 880.708 1038.13C881.637 1038.34 882.51 1038.63 883.326 1039.02L882.34 1041.74C881.637 1041.4 880.912 1041.12 880.164 1040.92C879.439 1040.72 878.577 1040.61 877.58 1040.61C876.129 1040.61 874.826 1040.99 873.67 1041.74C872.537 1042.48 871.641 1043.56 870.984 1044.97C870.327 1046.37 869.998 1048.07 869.998 1050.07C869.998 1051.97 870.315 1053.64 870.95 1055.06C871.607 1056.49 872.503 1057.6 873.636 1058.4C874.792 1059.19 876.107 1059.59 877.58 1059.59C878.691 1059.59 879.654 1059.45 880.47 1059.18C881.286 1058.91 882.079 1058.55 882.85 1058.12L883.836 1060.81C882.997 1061.26 882.034 1061.65 880.946 1061.97C879.881 1062.26 878.634 1062.41 877.206 1062.41ZM896.912 1062.41C895.144 1062.41 893.569 1062.09 892.186 1061.46C890.804 1060.8 889.625 1059.91 888.65 1058.8C887.698 1057.67 886.962 1056.36 886.44 1054.86C885.942 1053.36 885.692 1051.77 885.692 1050.07C885.692 1047.73 886.134 1045.65 887.018 1043.81C887.925 1041.95 889.217 1040.49 890.894 1039.42C892.572 1038.34 894.578 1037.79 896.912 1037.79C898.658 1037.79 900.222 1038.11 901.604 1038.74C903.01 1039.38 904.2 1040.26 905.174 1041.4C906.149 1042.53 906.886 1043.83 907.384 1045.31C907.906 1046.78 908.166 1048.37 908.166 1050.07C908.166 1051.77 907.906 1053.36 907.384 1054.86C906.886 1056.36 906.149 1057.67 905.174 1058.8C904.2 1059.91 903.021 1060.8 901.638 1061.46C900.256 1062.09 898.68 1062.41 896.912 1062.41ZM896.912 1059.62C898.658 1059.62 900.12 1059.2 901.298 1058.36C902.477 1057.52 903.361 1056.39 903.95 1054.96C904.562 1053.51 904.868 1051.88 904.868 1050.07C904.868 1048.84 904.687 1047.66 904.324 1046.53C903.962 1045.4 903.44 1044.39 902.76 1043.5C902.08 1042.6 901.242 1041.88 900.244 1041.36C899.27 1040.84 898.159 1040.58 896.912 1040.58C895.258 1040.58 893.83 1041 892.628 1041.84C891.45 1042.68 890.543 1043.81 889.908 1045.24C889.296 1046.67 888.99 1048.28 888.99 1050.07C888.99 1051.29 889.16 1052.48 889.5 1053.64C889.863 1054.77 890.384 1055.79 891.064 1056.7C891.744 1057.6 892.572 1058.32 893.546 1058.84C894.544 1059.36 895.666 1059.62 896.912 1059.62ZM912.917 1062V1038.2H917.439L924.035 1053.26L930.529 1038.2H935.153V1062H931.923V1042.31L925.565 1056.63H922.369L915.977 1042.31V1062H912.917ZM941.273 1062V1038.27C942.202 1038.15 943.222 1038.08 944.333 1038.03C945.466 1037.96 946.634 1037.93 947.835 1037.93C949.807 1037.93 951.484 1038.25 952.867 1038.88C954.25 1039.49 955.304 1040.34 956.029 1041.43C956.754 1042.52 957.117 1043.76 957.117 1045.17C957.117 1046.87 956.698 1048.31 955.859 1049.49C955.02 1050.67 953.853 1051.57 952.357 1052.21C950.861 1052.82 949.127 1053.13 947.155 1053.13C946.203 1053.13 945.319 1053.09 944.503 1053.02V1062H941.273ZM947.563 1050.44C949.58 1050.44 951.144 1049.99 952.255 1049.08C953.366 1048.17 953.921 1046.96 953.921 1045.44C953.921 1043.97 953.388 1042.8 952.323 1041.94C951.258 1041.08 949.739 1040.65 947.767 1040.65C947.155 1040.65 946.577 1040.66 946.033 1040.68C945.489 1040.7 944.979 1040.74 944.503 1040.78V1050.27C944.866 1050.32 945.308 1050.36 945.829 1050.41C946.35 1050.43 946.928 1050.44 947.563 1050.44ZM975.357 1062.34L972.705 1055.54H961.689L959.037 1062.27L956.283 1061.15L965.599 1038.2H969.135L978.315 1061.15L975.357 1062.34ZM962.709 1052.82H971.651L967.197 1041.4L962.709 1052.82ZM981.714 1062V1038.2H985.998L996.504 1057.99V1038.2H999.564V1062H995.348L984.774 1042.35V1062H981.714ZM1011.23 1062V1052.96L1002.97 1039.53L1005.69 1037.89L1012.96 1049.96L1020.1 1038.03L1022.65 1039.53L1014.46 1052.96V1062H1011.23Z" fill="white"/>
<rect width="334" height="40" transform="matrix(0 1 1 0 988 583)" fill="#D9D9D9"/>
<rect x="920" y="583" width="334" height="40" transform="rotate(90 920 583)" fill="#D9D9D9"/>
<g filter="url(#filter0_f_1014_4)">
<rect x="836" y="624" width="231" height="70" fill="#181616" fill-opacity="0.95"/>
</g>
<g filter="url(#filter1_f_1014_4)">
<rect x="840" y="758" width="265" height="66" fill="#181616" fill-opacity="0.95"/>
</g>
<defs>
<filter id="filter0_f_1014_4" x="796" y="584" width="311" height="150" filterUnits="userSpaceOnUse" color-interpolation-filters="sRGB">
<feFlood flood-opacity="0" result="BackgroundImageFix"/>
<feBlend mode="normal" in="SourceGraphic" in2="BackgroundImageFix" result="shape"/>
<feGaussianBlur stdDeviation="20" result="effect1_foregroundBlur_1014_4"/>
</filter>
<filter id="filter1_f_1014_4" x="800" y="718" width="345" height="146" filterUnits="userSpaceOnUse" color-interpolation-filters="sRGB">
<feFlood flood-opacity="0" result="BackgroundImageFix"/>
<feBlend mode="normal" in="SourceGraphic" in2="BackgroundImageFix" result="shape"/>
<feGaussianBlur stdDeviation="20" result="effect1_foregroundBlur_1014_4"/>
</filter>
</defs>
</svg>
