<svg xmlns="http://www.w3.org/2000/svg" viewBox="0 0 438 612">
    <path fill="#FDFDFD" d="M0 0h438v612H0z"></path>
    <path
      fill="#020202"
      d="M0 0h438v612H0zm88 29-7 1-7 2v4l-4 1h-3l-4-1-6-1H43v-2l-7-1 1 5-3 1-2 6-2 3c-2 5-1 9 1 14l4 2 1 3h2c-4 7-4 7-8 10l-3 4c1 5 4 10 7 14 2 6 1 12-1 17l-8 10 2 6h2l-1 19v3c-1 6-1 6-3 8v8l4 2v5l-1 3-1 7c-3 12-3 12 0 24l4 2c1 6-1 10-4 15v6c1 3 3 3 6 4l1 3 2 2c3 3 3 7 3 12l-2 2v3h-2v16l3 3c0 3-1 4-3 6-2 4-3 7-3 11v7h2v2l1 5 1 9-1 4v3h-2l-4 4c-1 6-3 13-1 18l5 5h3l-1 4v2l-2 3-1 7-2 11v14c0 5 0 7-4 11v6l2 1 3 1 1 5 3 2 2 9c-1 3-4 5-6 7-4 4-3 14-3 19 0 3 0 4 2 7l4 1v2h2v10l-3 1c-3 4-2 8-2 13v8l-2 1-1 2-3 3 2 7-1 4v6h-2c0 3 0 3 2 5l1 6v4c0 3 0 3-2 5-3 4-3 8-4 13v2c-1 7-2 13 2 19l1 5 1 3v2h2v5c4 3 6 2 10 2h4l5-2 1-4h7l3-1c3-3 8-2 12-2 5 0 9 2 13 5h3v2c4 3 7 3 12 3l8-2h2l7-4c2-2 5-2 8-2l4-1h3l1 5 3 1 1 3 4-1v-2l3-1 1-1c2-2 4-3 7-3v-2l2 1 9 2 10 4h5v-3l19-4 2 3 5 1h3l3 1h14v-2l3 1 6-1 16 1c5 1 8 1 13-1l16 1v-2l10 1 10-1h14c8 2 16 1 23-1v-2h12l12 2c4 1 5 1 9-1 4 0 6 1 8 4 3 2 4 3 7 3h3l2-5 23 1 2-13v-11c0-14 0-14-4-27-2-6-2-13-1-19l5-5 3-4-2-2c-4-4-3-8-3-13 0-4 2-6 4-9v-3h-2c-4-18-4-18 0-27v-7l-1-3-1-2v-3l-1-2h-2l5-8 1-1-2-8c-1-4-1-6 1-9l2-3 2-6-3-3c-4-3-5-5-6-8l2-11 2-12v-3l-1-12h2v-2l3-1h-3v-3h-2l-1-18h2v-2c1-4 2-5 5-7l-1-1c-3-3-5-6-5-10 0-5 0-7 4-11l1-5-3-4c-4-5-4-5-4-8v-12h-2v-4h2l2-7h2l4-4v-5h2c1-4 1-6-1-10v-6l-2-12-2-1-4-5 1-11-1-5c-2-2-3-3-6-3 0-8 2-14 7-20l2-1c2-5 2-9 2-14l2-7h-2l2-8v-2l-1-1c-1-7 0-13 3-19l-7-1v-2l-2-3v-10l2-1 2-5 1-2-5-2v-3l-2-2c-3-3-3-5-4-9l3-7 2-3 2-3c2-3 2-5 2-9h-2v-8l1-5-1-4c-8-6-18-7-28-5l-6 1-18-1-11 1c-7 2-12 3-18-1l-8 2-11 2-5 2c-5 3-12 2-17 0-8-3-8-3-11-6l-8-1-3 1h-2v2h-2v2c-8-1-8-1-12-4-3-3-6-3-10-3v2h-8l-2 1-11 1-6-1c-5-3-11-3-17-1l-3 1v-2l-9-1-2 4-8-4-6-1v5h-3l-10 3v2l-6-1h-3l-8-3h-7l-1 1c-8 1-16 0-23-3l-2-3-4-1-5-1z"
    ></path>
    <path
      fill="#D9D9D9"
      d="M182 30h5l2 1h2v2l3-1c6-2 12-2 17 1 5 2 9 1 14 0l7-1h6v-2c6 1 10 2 15 6l7 1c-3 2-5 3-9 3l-5-2h-2v-2l-6-1-2 3h-2l-1 1h-7l-7-1-7-1-1 3v-2l-3 1h-2l-7 1 1-3v-1h-4v-2h-2l-1 4-5 1-1-2-6-1-1-4z"
    ></path>
    <path
      fill="#E2E2E2"
      d="m45 577 4-1h7v4h-9l-1 4-7 1h-2l-3 1h-2l-5-2v-5l-2-1h3v3l3-1c9-4 9-4 14-3"
    ></path>
    <path
      fill="#DDD"
      d="m36 32 7 1v2h16l6 2h5l2-1h2l-4 3-11 1-2-3-2 1-2 1-2 1h-5l1-2-6-1-1 5-6-1 1-4h2z"
    ></path>
    <path
      fill="#E5E5E5"
      d="M238 30c6 1 10 2 15 6l7 1c-3 2-5 3-9 3l-5-2h-2v-2l-4-1v-2l-2 1c-6 2-11 2-18 2l-1-2 13-2h6z"
    ></path>
    <path
      fill="#B0B0B0"
      d="m412 136 2 1v2l-2 8h2l-1 2-1 7c0 5 0 8-2 12l-2-1 1-6h2v-2h-3l1-7-3-2c-1-4-1-6 1-9z"
    ></path>
    <path
      fill="#EEE"
      d="m238 33 2 1-4 4h-2l-1 1h-7l-7-1-7-1-1 3v-2l-3 1h-2l-7 1 1-3c7-3 16-2 24-2z"
    ></path>
    <path fill="#E9E9E9" d="M411 217h3v14l2 2v4h-5l-1-3-1-2v-6l-1-7h3z"></path>
    <path
      fill="#D3D3D3"
      d="m147 576 2 1v2l-3 1c-4 1-4 1-6 4h-2l-1 3h-3l-1-3-3-1v-2h2l1-2h3l1-2h6z"
    ></path>
    <path
      fill="#D7D7D7"
      d="m381 576 4 3-2 5c-3 0-5 1-8-1l-4-4c3-4 6-3 10-3"
    ></path>
    <path fill="#CCC" d="m275 33 2 6-7-2h-5l-1 2h-3l-1-4h2v-2z"></path>
    <path
      fill="#D1D1D1"
      d="m66 37 8-1-4 3-11 1-2-3-7 3v-3l-2-1c6-1 12-1 18 1"
    ></path>
    <path
      fill="#D9D9D9"
      d="m412 136 2 1v2l-2 8-3-1-1 5-2-1c0-3-1-6 1-9z"
    ></path>
    <path fill="#D2D2D2" d="m407 346 2 4-1 20h-1v-10l-2-1 1-2-1-4-1-2z"></path>
    <path fill="#A9A9A9" d="m238 30 8 1-4 1v2h-2l-11 2h-9l-1-2 13-2h6z"></path>
    <path fill="#EDEDED" d="M37 311c2 4 2 5 2 9l-6 7-3-1 1-4 4-1v-4z"></path>
    <path
      fill="#DBDBDB"
      d="M30 384h1l1 6v2l2 1-4 9-3 1-1 3v-6l2-2c3-5 2-9 2-14"
    ></path>
    <path fill="#BEBEBE" d="m408 318 1 4h-2l1 17-2-1v-3h-2v-10l1-3z"></path>
    <path
      fill="#DEDEDE"
      d="m212 33 2 2-9 1h-3c-3 0-3 0-5-2 5-2 10-2 15-1"
    ></path>
    <path fill="#EEE" d="m403 258 1 4h2l1 7-2 2h-2l-1-3-2-5 1-2h2z"></path>
    <path
      fill="#D6D6D6"
      d="M382 33h-2l-2 1-1 2-4 1-6 2-1-1-4 2v-5h6l3-1z"
    ></path>
    <path fill="#F1F1F1" d="M182 30h4l1 3h3v3h-9l-1-4z"></path>
    <path fill="#C5C5C5" d="M25 578h3v3l3-1 3 2 5 2v1l-4 1h-3l-5-2v-5z"></path>
    <path
      fill="#EDEDED"
      d="m57 36 3 3-1 2h-2v-2l-3 2-9 1v-3l-4 1v-3l6 1v2l8-3z"
    ></path>
    <path fill="#D4D4D4" d="M56 576v4h-9l-1 2-1-5z"></path>
    <path fill="#D2D2D2" d="m416 238 1 2-1 2h-2v5l-4 2v-9z"></path>
    <path fill="#E2E2E2" d="m180 579-2 2h-3v3c-4 0-6 0-9-3l5-2z"></path>
    <path
      fill="#C9C9C9"
      d="m132 579 1 2h3c3 0 3 0 5 2l-3 1-1 3h-3l-1-3-3-1v-2h2z"
    ></path>
    <path fill="#E1E1E1" d="m416 117-3 7h-3l-2 1v-8z"></path>
    <path fill="#EFEFEF" d="m240 34-4 4h-2l-1 1h-7v-2l3-1 3-2z"></path>
    <path fill="#F6F6F6" d="m202 35-3 4h-6l-1-4c3-2 6-1 10 0"></path>
    <path fill="#1F1F1F" d="m32 232 2 1v3l3 1 3 7-2 1v-3h-2l-2 2z"></path>
    <path fill="#DBDBDB" d="m405 193 3 1-2 12h-3l1-9h2z"></path>
    <path fill="#EBEBEB" d="m388 32 4 1h3l4 3-2 3h-2v-2h-5z"></path>
    <path fill="#D4D4D4" d="m101 583 1 3-5 1h-3l-5-1 3-3z"></path>
    <path fill="#E8E8E8" d="m29 493 3 1c0 4-2 6-5 9l-2-2v-3l3-2z"></path>
    <path fill="#CBCBCB" d="m351 33 10 1-1 4-2-1-2 3h-3l1-5z"></path>
    <path fill="#D5D5D5" d="M25 192h1v7h2v3l3-1 1 2h-2l-1 2h-3l-1-9z"></path>
    <path fill="#C1C1C1" d="m26 509 2 1 1 7-4 2-1-4h2z"></path>
    <path fill="#D8D8D8" d="m406 163 3 1-5 12c-1-4-1-6 1-9z"></path>
    <path fill="#D6D6D6" d="M215 35h15v3h-12v-2z"></path>
    <path fill="#D7D7D7" d="M25 157h3v5l3 1-2 1v3l-4-2z"></path>
    <path
      fill="#DFDFDF"
      d="m27 533 2 1-1 2v4l-4-1 1 2v2l-2 2c0-4 0-6 2-10z"
    ></path>
    <path
      fill="#C4C4C4"
      d="M208 31v1h-2l-3 1h-3l-3 1-1 2v-2h-5v-1c6-2 11-2 17-2M105 578l3 1 1 3 3 1-7 1-1-5z"
    ></path>
    <path fill="#E6E6E6" d="m118 577 2 2-11 3v-2l-2-1z"></path>
    <path fill="#CFCFCF" d="m37 465 1 4-7 9 3-8h2z"></path>
    <path fill="#BBB" d="m377 578 2 1-1 3 5-1v3l-8-1-1-2z"></path>
    <path fill="#E8E8E8" d="m379 576 2 1Zm0 1-2 1-1 3-4-1v-3z"></path>
    <path fill="#EDEDED" d="m417 237-3 3-6 1v-3c3-2 5-2 9-1"></path>
    <path fill="#E3E3E3" d="M33 92h6l1 5-3-1-2 2z"></path>
    <path fill="#D2D2D2" d="m43 35 7 2-1 4-3-1 1-2-6-1z"></path>
    <path fill="#D1D1D1" d="M242 32h6l1 2h-4l-1 3-4-2 2-1z"></path>
    <path fill="#212121" d="M149 577h5l1 1 7 1v1h-5v2z"></path>
    <path fill="#CFCFCF" d="m412 218 3 1v9l-2-1-1-5z"></path>
    <path fill="#A3A3A3" d="m61 35-11 5v-3l-2-1z"></path>
    <path fill="#F3F3F3" d="m29 516 3 1-1 4-4 2-1-4z"></path>
    <path fill="#101010" d="m26 339 3 3v5l-4-2z"></path>
    <path fill="#D9D9D9" d="m36 282 4 2-5 6-1-6z"></path>
    <path fill="#CFCFCF" d="M410 232h5l1 5h-5z"></path>
    <path fill="#CECECE" d="m27 225 3 1 1 5-4-1-1-4z"></path>
    <path fill="#A0A0A0" d="m250 35 10 2-6 2-3-1z"></path>
    <path fill="#E2E2E2" d="M323 33c4 0 6 1 9 3l-8 2 1-4z"></path>
    <path fill="#C7C7C7" d="m41 581 5 1v2l-6 1z"></path>
    <path fill="#E3E3E3" d="M142 577v2l-5 4v-2l-3-1c2-3 4-3 8-3"></path>
    <path fill="#E8E8E8" d="m40 578-2 1v2l-6 2v-4z"></path>
    <path fill="#292929" d="M59 576h6l-1 4h-2l-1 2z"></path>
    <path fill="#DBDBDB" d="m33 357 4 3-1 3h-2l-1 4z"></path>
    <path fill="#CECECE" d="m33 321 3 2-1 3-5 1 1-5z"></path>
    <path fill="#D0D0D0" d="M31 57h4l1 6-5-2z"></path>
    <path fill="#F0F0F0" d="m102 580 3 1v3l-5 1-1-3z"></path>
    <path fill="#0F0F0F" d="m25 492 4 1-1 4h-3z"></path>
    <path fill="#F4F4F4" d="m28 575 1 1c2 2 3 3 6 3h-3l-1 2h-3z"></path>
    <path fill="#D0D0D0" d="m409 142 3 1-1 4-4-1z"></path>
    <path fill="#CACACA" d="m182 30 4 1-1 3h-5z"></path>
    <path fill="#D7D7D7" d="m78 30 2 1-1 5-2-2-3 1v-3z"></path>
    <path fill="#CCC" d="M174 582v2l-8-3c4-1 5-1 8 1"></path>
    <path fill="#B6B6B6" d="M25 578h3v3l3-1 1 2h-2v2h-3v-5z"></path>
    <path fill="#1A1A1A" d="m29 390 2 2-1 4-3 2-1-3 2-1z"></path>
    <path fill="#BABABA" d="M404 382h2v6l-4-1v-2h2z"></path>
    <path fill="#EFEFEF" d="m401 379 1 2h2v4l-3 1z"></path>
    <path fill="#B8B8B8" d="M411 243h3l-1 5-3 1v-5z"></path>
    <path fill="#E2E2E2" d="m266 34 1 3h-2l-1 2h-3l-1-3z"></path>
    <path fill="#262626" d="M116 33h3v2l7 1v1c-7 0-7 0-10-2z"></path>
    <path fill="#979797" d="M95 30h8l1 3z"></path>
    <path fill="#8D8D8D" d="m238 30 8 1-4 1v2l-5-1z"></path>
  </svg>
