 <svg xmlns="http://www.w3.org/2000/svg" viewBox="0 0 512 512" fill="white">
    <path d="m385 79 2 1a109 109 0 0 1 28 22 105 105 0 0 1 30 67 119 119 0 0 1-16 72c-2 4-4 8-8 11h-13c-13-2-26 4-36 12-7 5-11 11-14 20l-4 8c-5 2-9 2-14 2h-4c-32 1-61-11-85-33-21-22-33-50-33-81 0-32 13-61 36-84 35-33 89-39 131-17m-65 27-1 5c-2 5-2 8-6 11-5 3-9 4-15 3l-9-5h-5l-6 6-2 1c-3 3-4 5-5 9l2 4c4 5 5 9 4 15-2 5-4 7-8 10l-9 3-4 2v18l2 4 5 1c5 2 9 3 12 8 2 5 3 10 1 16l-3 4-2 3c1 5 4 8 7 11l2 1c3 4 3 4 8 5l5-4c4-2 9-3 14-2 5 2 8 4 10 8l2 9 3 4h18l4-2 1-4c1-6 3-9 7-13 5-2 10-3 15-1l6 3 5 2 8-7 2-2c2-2 4-3 5-6-1-4-3-6-5-9-2-5-2-10 1-15 2-4 4-6 8-8l7-2 4-2v-17c0-3-1-3-3-5l-5-1c-5-2-8-3-11-7-3-5-2-9-2-14l5-9v-5a56 56 0 0 0-7-8l-5-4c-5 0-7 1-11 4-5 2-10 1-15 0-5-3-7-5-9-11a158 158 0 0 1-2-8c-4-2-8-1-11-1h-8zM29 16h2a2454 2454 0 0 1 96 0 6164 6164 0 0 1 70-1c4 1 5 3 8 6l1 7v24a10335 10335 0 0 1 0 75l1 3-3 11c-4 4-7 4-12 4h-8a3103 3103 0 0 0-14 0h-32a1772 1772 0 0 0 0 15c0 9 1 18 6 26v8c-13 0-23-5-33-13l-3-2c-7-7-13-17-15-27v-7h-3a4720 4720 0 0 1-59 0h-4c-4 0-6-1-9-4-2-3-2-4-2-8v-6l-1-97 3-11c4-3 6-3 11-3m18 27-2 6 4 5h35a5034 5034 0 0 0 76 0h10l6-3 1-4c-2-4-2-4-5-6h-15a4352 4352 0 0 0-95-1h-4c-6 0-6 0-11 3m-1 34-1 5c2 3 3 4 6 5h15a4895 4895 0 0 0 93 0h4c7 0 7 0 13-3l1-5c-1-3-1-3-4-5l-12-1h-24a3153 3153 0 0 0-80 1h-6c-2 0-3 1-5 3m1 31-2 6 4 5h33a4878 4878 0 0 0 79 1h4c6 0 6 0 11-3l1-6c-2-3-3-4-6-5h-11l-98-1h-4c-6 0-6 0-11 3"></path>
    <path d="M322 16h2c31 0 31 0 44 3l2 1c30 7 55 21 77 42l3 3c22 20 36 50 43 79l1 4c5 21 4 48-1 69l-1 3a155 155 0 0 1-27 58l-6 7h-2l-1-2c-5-11-13-19-23-26l2-4 1-2 4-6c17-29 22-63 15-95a128 128 0 0 0-118-96h-2a127 127 0 0 0-114 66h-2a2052 2052 0 0 1-1-50c0-10 0-10 4-14l4-3 2-2c27-20 60-35 94-35M151 315l3-1c7 2 13 6 18 11l2 2a687 687 0 0 1 13 13l1 2c6 5 10 11 10 19v3c-2 10-9 16-16 23a3443 3443 0 0 0-13 13l-10 9a9910 9910 0 0 1-79 79l-2 3c-5 4-10 5-16 5h-3c-8-1-13-5-18-11l-16-15-1-2c-6-5-8-10-8-18l-1-3c2-10 10-17 17-23a4529 4529 0 0 0 13-13l7-8a12210 12210 0 0 1 75-75c14-14 14-14 24-13m212 69c5 5 9 12 13 18l16 25a902 902 0 0 1 14 21h2l4-5 1-2 2-4 6-9 24-36 1-1 5-7 8 1 8 7 3 2c16 16 25 37 27 60 0 14 0 14-5 19l-2 2-2 2c-9 8-22 12-33 15h-3a189 189 0 0 1-51 4c-16 0-32-1-48-6h-2c-13-4-25-10-32-21-6-15 0-34 6-48 5-10 11-18 19-26l2-2c10-11 10-11 17-9M208 156v3a127 127 0 0 0 42 117l3 2c29 23 63 31 99 27l1 3c2 11 4 23 12 31v3a172 172 0 0 1-143-39l-6-5-13-15-2-3c-26-33-37-75-33-117l1-5h3a2202 2202 0 0 0 19-1h4l7-1zm226 117c10 9 14 19 15 32 0 10-4 20-10 28-9 9-20 14-32 14s-22-4-30-12c-8-9-13-20-12-32s5-22 14-30c16-13 39-14 55 0"></path>
    <path d="M354 150a38 38 0 0 1-20 68c-11-1-21-3-29-11-9-10-11-20-10-33 1-9 5-17 12-23 15-11 32-12 47-1m-17 19-11 12-7-7-4-3-6 2-2 6c1 4 3 6 6 9l2 2 3 3 2 3 6 2c4-1 5-3 8-6l3-2a311 311 0 0 0 11-13c4-4 4-4 5-9-1-3-2-4-5-6-5 0-8 4-11 7m62 201h19l5 1c2 3 2 6 1 9l-5 13 1 7c1 8-2 11-6 17l-2 3-6 7c-14-18-14-18-13-27l1-6c0-4-1-7-3-11-2-3-1-6-1-10 2-4 5-3 9-3m-209-82a53 53 0 0 1 10 10 1343 1343 0 0 1 17 17 3127 3127 0 0 1 7 6l-19 20-6-4-15-16-3-3-2-2-3-3-5-4c1-3 3-6 6-8l2-2 3-3 2-2z"></path>
  </svg>
