 <svg xmlns="http://www.w3.org/2000/svg" viewBox="0 0 512 512" fill="white">
    <path d="m163 4 2 1a125 125 0 0 1 86 90 172 172 0 0 1 5 43l1 30 23-22a19008 19008 0 0 1 29-29l3-3a762682 762682 0 0 1 94-94c11-12 20-20 37-20a35 35 0 0 1 28 11 834 834 0 0 1 21 21c10 10 20 19 20 34 0 16-4 25-15 35l-2 2-2 2a3003 3003 0 0 1-25 25l-13 14a40463 40463 0 0 1-47 46l-2 2a410178 410178 0 0 0-68 68l5 7 1 2 2 1 2 2 7 7a11489 11489 0 0 1 76 76l1 1a25172 25172 0 0 1 54 54c18 18 18 18 23 29l1 3c4 11 4 27-1 37-8 17-18 26-35 32-11 3-26 2-37-3l-3-1c-12-7-23-20-33-30a22603 22603 0 0 0-121-121c-3-3-5-6-6-10l4-7c3-2 5-1 9 0l6 6 2 1 6 6a3352 3352 0 0 0 57 57 21052 21052 0 0 0 63 65c11 11 22 22 39 22 8-1 17-3 23-9l3-1 1-2 5-8c4-8 4-18 2-27-4-14-17-25-27-35a11843 11843 0 0 1-17-17l-13-13a41183 41183 0 0 0-111-110c-3 1-5 3-7 6l-2 2-1 1 2 2a193209 193209 0 0 1 124 124l1 1c3 3 5 5 5 9 0 3-1 4-3 7l-4 2c-7 5-10 9-14 15-2 4-4 5-8 6-4-1-5-2-8-5l-32-31-10-10a50109 50109 0 0 1-86-86l-10 8-1 1-4 4-8 9a7745 7745 0 0 0-95 96c-21 22-40 35-69 44a272 272 0 0 0-25 10l-3 1a19284 19284 0 0 1-48 19c-5 2-11 4-17 3-3-2-3-3-3-7 0-6 2-11 4-17l2-3 4-11a3825 3825 0 0 0 26-66l1-2a228 228 0 0 1 4-12c5-18 19-29 32-42l10-10a3912 3912 0 0 1 84-83c-3-2-7-1-11-1l-14-1c-36-2-70-7-98-32l-2-2a124 124 0 0 1-42-95v-2c0-12 1-23 4-34l1-2c2-7 3-12 9-17h6l15 14 2 2a5378 5378 0 0 1 23 23l12 12 23 23a183 183 0 0 0 15-13l2-3a9292 9292 0 0 1 11-11l8-8 15-15-5-7-2-2-2-2-2-2a2312 2312 0 0 0-57-57c-4-4-6-6-6-12 4-7 11-9 18-11 24-6 50-7 73 0M95 20l12 13 2 2a3889 3889 0 0 0 19 19l10 10 20 20 8-6 2-2 3-3 2-2a4276 4276 0 0 0 27-27c-5-11-23-18-33-22l-14-4-3-1c-17-4-37-2-55 3m327 7-2 2a1391 1391 0 0 0-20 20l-10 10-21 21 19 20a15144 15144 0 0 1 13 13l10 10 20 20 20-18 38-39c4-4 7-8 7-14v-6c-1-12-15-22-23-31a1558 1558 0 0 1-9-8l-2-2c-6-6-11-9-19-9l-3-1c-8 2-13 7-18 12M207 59l-2 2-2 2-7 6a11813 11813 0 0 1-17 18l-13 13A42104 42104 0 0 0 55 211c5 11 22 17 33 22l30 6 11 2c18 5 42 10 59 0 11-7 20-17 29-26l2-2 12-14 2-1c7-8 10-14 10-24l-1-4v-8l-1-6v-3a2750 2750 0 0 0-1-17c-1-28-6-60-27-81-3 0-4 2-6 4m148 34-2 3-2 2-2 2-2 2-6 6 19 20a15144 15144 0 0 1 13 13l10 10 20 20 3-3 2-1 7-7 3-3 2-2-19-20a22707 22707 0 0 1-38-38l-1-2c-3-3-3-3-7-2M20 96a109 109 0 0 0 22 104l8-6 2-2 3-3 2-2a4276 4276 0 0 0 27-27 195 195 0 0 0-23-24 9621 9621 0 0 0-35-35l-1-1c-2-3-2-3-5-4m307 26-2 2-3 3a51596 51596 0 0 0-15 15l-10 10a42949 42949 0 0 0-118 118l-2 2A2115434 2115434 0 0 1 67 382a2435 2435 0 0 0 12 13l1 2a3750 3750 0 0 0 19 18l10 10 20 20a249 249 0 0 0 29-28l10-10a40651 40651 0 0 0 115-115l2-2a2007394 2007394 0 0 1 107-107l-3-3-1-2-8-8-1-2a3470 3470 0 0 0-44-43l-1-2c-3-3-3-3-7-1m-26 174-3 3-2 2-2 2 17 19 4 3 9 9 10 10a46483 46483 0 0 0 83 83l2-2 8-8a174544 174544 0 0 0-118-118l-3-3c-3-3-3-3-5 0M58 397a2900 2900 0 0 0-15 36l-1 3-1 2c0 3 0 4 2 6l6 6 2 2a2131 2131 0 0 0 19 19l28-10a10759 10759 0 0 1 17-7l-17-19a18082 18082 0 0 1-34-34l-3-2zm-24 61a6686 6686 0 0 0-10 25c-2 3-2 3-2 7l21-8 3-1 8-3-13-14-2-2c-2-3-2-3-5-4"></path>
    <path d="m185 110 6 5 1 2a355 355 0 0 1 12 11l1 2c3 3 5 5 5 9-2 5-5 9-9 13l-52 51-2 2c-5 5-5 5-9 6l-7-4-2-2-2-2-2-2-7-7-3-2c-7-7-7-7-7-11 2-10 15-19 21-25a49053 49053 0 0 0 39-40l2-1c5-5 8-7 15-5m-8 21-2 2-2 2-2 2 6 8 2 2 1 1 3-3 2-1 5-6-4-4-3-3c-3-3-3-3-6 0m-21 21-3 3-2 2-2 2 3 3 1 2 5 5 8-6 2-2 1-1-3-3-1-2-5-5zm-21 21-3 3-2 2-2 2 3 3 1 2 5 5 10-8-6-8-1-2c-3-2-3-1-5 1m335 265c5 3 10 8 12 15 1 8 1 15-4 21-4 5-9 8-15 8-8 1-13 0-19-5-6-6-7-11-7-19 0-7 2-11 7-16 7-6 16-7 26-4m-16 16c-2 3-1 6-1 9l3 3c3 0 6 1 9-1 2-3 1-6 1-9l-3-3c-3 0-6-1-9 1"></path>
  </svg>
