<svg xmlns="http://www.w3.org/2000/svg" viewBox="0 0 512 512" fill="white">
    <path d="M165 0h4a1682 1682 0 0 1 90-1h3c8 0 15 2 21 8s8 13 8 21v32h4a9829 9829 0 0 1 99 2c3 3 3 5 3 9v3a470 470 0 0 1-1 47 1064 1064 0 0 0 0 12v2c0 4 0 6-3 9h-9l-4-5V76H45v421h14V288l-1-3 3-9 4-3h4c3 1 4 2 6 5v21a4118 4118 0 0 0 0 24v174h130V141H75v82a1079 1079 0 0 0 0 17v3c0 6 0 6-2 10l-7 2-7-6v-44a11714 11714 0 0 1 0-103v-3c0-3 0-5 2-7 3-2 6-2 10-2h31a9770 9770 0 0 1 38 0h3a1709710 1709710 0 0 0 204 0h4c5 0 9 0 14 3l1 9v9a9805 9805 0 0 0 0 18v15a35708 35708 0 0 1 0 181v4a1759290 1759290 0 0 0 0 168h14v-5a138058 138058 0 0 1 0-134v-3a51815 51815 0 0 0 0-176v-6c0-4 1-6 4-9 7-1 7-1 10 2 2 3 3 4 3 8v36a6784 6784 0 0 1 0 153 28495 28495 0 0 1 0 59v3a10218 10218 0 0 0 0 74v6c-1 4-2 5-5 7l-6 1h-4a8178 8178 0 0 1-21 0h-13a7566 7566 0 0 1-47 0h-3a342182 342182 0 0 0-174 0h-3a11396 11396 0 0 0-85 0l-5-3c-3-3-3-6-3-9v-10a3000 3000 0 0 0 0-21v-16a11368 11368 0 0 1 0-58v-4a820549 820549 0 0 0 0-322c0-3 1-5 3-8 3-2 4-3 7-3h9a870 870 0 0 1 34 1h53v-3a997 997 0 0 1 0-18c-1-13-1-23 8-32 7-7 14-7 23-7m-11 18c-7 10-7 10-4 42h125c3-32 3-32-4-42-6-4-11-3-18-3h-3a3421 3421 0 0 0-78 0h-3c-5 0-10 0-15 3m-79 88v19h275v-19zm146 35v356h129V141zm198 128h4a2607 2607 0 0 1 48 0h4c4 1 5 3 8 6 1 6-1 9-4 14l-1 2a655 655 0 0 1-23 38l-1 2-2 2-5 4-7-1a7064 7064 0 0 0-20-32l-1-2a294 294 0 0 0-11-17c-2-4-2-6-1-11 4-4 6-5 12-5m10 17 10 19 2 2 3 5h2l3-5 3-4 1-2 3-5 5-10zm20-110 18 28 1 2 8 12 1 2 3 5c3 4 4 7 3 12-2 3-2 4-6 5h-16a3676 3676 0 0 1-43 0h-3c-4 0-5-1-8-4-2-8 3-15 8-22a2075 2075 0 0 0 17-28l1-3 2-3 1-2c4-5 7-6 13-4m-5 24-3 5-3 4-1 2-3 5-5 10h32l-11-19-1-2-3-5z"></path>
    <path d="M239 29h4c9 0 9 0 12 3 2 4 3 5 2 9-2 3-3 4-6 5h-15c-7 1-7 1-11-2-3-4-3-6-2-10 4-6 10-5 16-5m-53 1h6l3-1c4 1 5 2 7 5l1 4v2c-1 3-3 4-6 6h-15c-8 0-8 0-12-2-2-3-2-4-2-8l3-5c4-2 9-1 15-1"></path>
  </svg>
