  <svg xmlns="http://www.w3.org/2000/svg" viewBox="0 0 512 512" fill="white">
    <path d="M233 118v45l-8 4c-2 2-1 5-1 8v2a1137 1137 0 0 0 0 12c0 9 0 16 6 23l13 11 2 1c4 2 7 4 11 4 11-4 22-12 27-23l1-11v-2a1326 1326 0 0 0 0-16v-3l-1-7-7-3v-45a136 136 0 0 1 72 37c23 22 34 53 37 84H124c0-32 15-61 37-84l2-2c16-17 46-35 70-35m-77 169h196v54c-3 2-4 2-8 2h-38l-4 1a44 44 0 0 1-37-17c-4-4-8-5-13-4-6 1-10 5-14 10-7 6-15 10-24 10h-14a3649 3649 0 0 1-18 0h-20c-3 0-3 0-6-3z"></path>
    <path d="M375 21c4 3 5 7 6 12l1 3a645 645 0 0 1 4 17l1 3c1 4 2 9 1 14-3 4-8 4-12 5l-20 5-3 1-13 1-4-4c0-4 1-5 3-8l9-3 5-1h2l8-3c-26-13-53-22-82-26h-2a225 225 0 0 0-166 48l-2 1a213 213 0 0 0-60 75 215 215 0 0 0-22 76c-6 50 5 105 34 147l2 7-3 5h-8c-5-6-9-14-13-21l-1-3c-11-20-18-41-22-63l-1-2c-3-15-3-29-3-44v-3a212 212 0 0 1 4-43 237 237 0 0 1 56-115 238 238 0 0 1 296-51l-3-16c-2-9-2-9 0-13 3-2 5-1 8-1m76 107c12 5 20 28 25 40 13 31 21 67 19 101v3c-3 50-19 101-52 140l-1 2a224 224 0 0 1-46 43c-34 26-74 40-116 45h-3c-48 5-96-6-138-28l-2-1 1 2 2 9 1 3c2 8 2 8 1 13l-4 4-6-1c-3-4-4-8-5-13l-1-3a1030 1030 0 0 1-4-17l-1-3c-1-4-2-8 0-13l7-3 4-1 10-3 6-1c14-4 14-4 21-3 3 2 3 3 4 6l-3 5c-4 3-9 4-14 5h-3l-7 2c12 9 27 14 41 18l2 1a228 228 0 0 0 247-82l2-3c13-17 23-37 30-57l1-2c19-55 15-116-9-168-6-14-6-14-14-27-2-4-3-5-2-9 2-3 3-4 7-4"></path>
    <path d="M107 250h32a10554 10554 0 0 1 232 0 2277 2277 0 0 0 23 0h10l6 3 1 5v13l-3 4-7 1h-32a7368 7368 0 0 1-190 0h-3a18175 18175 0 0 0-62 0h-10l-5-2v-22c3-2 4-2 8-2m256 37h21a4900 4900 0 0 1 0 55c1 11 0 22-8 30-4 3-8 7-13 7zm-238 0h20v92c-9-3-15-8-19-17l-1-10v-2a2264 2264 0 0 1 0-25zm139-117 10 3a745 745 0 0 1 1 17c0 7 0 12-5 17l-8 7-3 2-6 1c-7-3-15-9-19-17v-26l2-1 3-1 2-1 5-2c7-3 12-1 18 1m-13-62 4 1h6c4 6 5 10 4 17l-2 33-2-1-3-1-9 1-5 1a2233 2233 0 0 1 0-37c0-6 0-12 7-14"></path>
  </svg>
