 <svg xmlns="http://www.w3.org/2000/svg" viewBox="0 0 512 512" fill="white">
    <path d="M266 85c21 18 36 41 39 69 1 22-3 41-10 61l2 1c8 3 13 9 16 17a47 47 0 0 1-27 56c-2 1-3 2-4 5v2l-1 3c-4 12-10 22-17 32-5 6-7 11-6 18l2 1a83 83 0 0 1 12 6l3 2 2 1a1555 1555 0 0 1 44 25c44 25 44 25 49 43l1 18a2723 2723 0 0 0 0 52v2c-1 3-1 5-3 7-3 3-4 3-8 2-2-1-4-2-5-5v-11a1743 1743 0 0 1 0-48c0-13 0-13-7-24l-16-11-3-1-6-4v4a9755 9755 0 0 1 0 85v3l-3 10-6 3-5-2c-3-5-2-8-2-13v-10l1-19v-23c3-27 3-27-5-52-6-6-14-9-23-11v71c0 6 0 9-4 13h-15a4835 4835 0 0 0-18 0h-11a12419 12419 0 0 1-112 0h-4c-4 0-5-1-7-4v-10a696 696 0 0 1 0-27v-43l-2 1a4123 4123 0 0 1-17 10l-3 2-5 1v2a15792 15792 0 0 1 0 99c0 9 0 9-3 13l-8 1-4-4v-13a1115 1115 0 0 1 0-34v-54a967 967 0 0 0-16 9c-8 5-14 10-17 20v9a825 825 0 0 0 0 56v4c-1 4-2 5-5 7h-7c-3-3-4-4-5-8v-6a502 502 0 0 1 1-49c0-13 1-25 10-36a142 142 0 0 1 27-18 3388 3388 0 0 1 64-37l2-1 6-3 4-1c0-8-1-12-7-18-8-10-19-29-19-42l-3-1c-10-4-19-12-24-22-4-11-6-23-2-35 4-8 10-12 17-17l-1-3c-5-14-8-27-9-41v-2c-1-29 11-54 30-75 39-40 110-45 153-8m-118 1-3 2c-8 4-15 10-21 16l-2 2a84 84 0 0 0-22 77l1-1a202 202 0 0 1 138-18l3 1c12 3 23 7 34 12l2 1 10 5c2-6 2-11 2-17v-3c0-24-11-45-28-62a102 102 0 0 0-114-15m-44 112c5 19 15 41 30 55l3-2a121 121 0 0 1 118 2c9-11 16-23 22-36l2-3 5-16c-51-33-129-35-180 0m186 31-1 39c7-7 11-13 11-23 0-4-1-9-5-13zm-199 6c-3 5-3 12-2 17 2 7 6 11 10 16h1l-1-39c-3 0-6 4-8 6m77 19-4 1c-10 3-19 8-28 14h-8c-5-4-9-10-13-16h-1c0 6 0 12 2 19v2c6 29 22 57 46 74 14 8 28 12 44 9 11-3 21-9 30-17l2-2c24-22 36-54 37-86a71 71 0 0 0-11 13l-2 2-5 3-12-5-4-3-2-1a96 96 0 0 0-71-7m-22 100c-1 12 4 22 11 31 10 10 21 16 35 17 13 1 26-4 36-13 10-10 15-22 15-35l-2 1c-18 12-36 20-58 16-13-2-26-9-37-17m-22 15v79h141v-39l1-12v-7a366 366 0 0 1 0-12v-3l-1-5-6-4-3 1-2 5c-5 15-14 28-27 36-17 9-34 10-53 5-7-3-16-7-21-12l-4-2-1-2-4-6c-6-7-9-16-12-25-3 0-3 0-8 3m281-185 3 3v10a756 756 0 0 1 1 19c0 6 1 11 5 16 5 4 9 5 15 4 5 0 8-2 11-5 5-8 5-18 5-27a676 676 0 0 1 1-19l8-2c10 3 20 13 26 22 10 16 13 35 9 53-3 11-8 21-18 29-4 4-6 8-6 14a220 220 0 0 0 0 16 750 750 0 0 0 0 60 8418 8418 0 0 1 0 88c1 15-1 26-12 37-8 8-18 10-29 10-12-1-20-6-28-14-8-10-9-21-8-35a2219 2219 0 0 0 0-89 3227 3227 0 0 0 0-65c1-8 1-15-5-21l-5-5q-6-4.5-9-12l-1-2a65 65 0 0 1 27-84c4-2 6-1 10-1m-13 22c-8 8-14 19-15 31v2c-1 14 5 26 14 37l8 7h2a52 52 0 0 1 1 15v8a10760 10760 0 0 0 0 37v3a385675 385675 0 0 0 0 117c0 14 0 14 6 26 5 5 11 8 18 8s13-2 18-6c7-9 7-20 7-31a2506 2506 0 0 1 0-67 19288 19288 0 0 1 0-98v-3c0-3 0-6 2-9l4-3c10-8 16-19 19-31a52 52 0 0 0-15-43h-1v2c-2 26-2 26-12 36-8 7-17 8-28 7-8-1-15-6-20-12-7-10-7-22-7-33zM389 0c5 3 8 8 11 13 1 2 2 4 5 5 4-1 6-4 9-8l2-4 2-1c2-3 4-4 7-4l9 3 4 1 2 1 6 2c9 5 9 5 11 8 1 7 0 14-2 20v3l4 2h6l6-1h5c4 0 5 1 8 4l3 6 1 3 1 4 2 3c3 10 3 10 3 16-4 5-10 9-16 13h-2c1 6 2 8 7 11l4 3 2 1 2 1c2 3 2 6 2 9l-2 6-2 4-1 2-2 5c-5 11-5 11-9 13h-6l-4-1a479 479 0 0 1-12-1c-2 2-2 2-2 6l1 14c0 4-1 5-3 8l-6 3-3 1-4 1-3 2c-12 4-12 4-18 3l-4-4-1-2-2-2-2-2-3-7-6-1-1 2-5 8-3 3c-4 4-4 4-7 4-7 0-12-3-18-5l-3-2c-10-4-10-4-12-8-1-6 1-13 2-19l-1-5-7-1-12 1h-3c-3 0-4-1-6-4l-5-13-2-4-1-4-1-3v-9l6-5 2-2 8-5v-6l-7-6c-8-6-8-6-9-9l3-12 2-3 1-3 2-3c5-11 5-11 9-13l8 1 14 1c2-3 2-6 1-10a91 91 0 0 1 0-12c0-3 0-4 3-6l13-5 3-2 4-1 3-1zm-14 20-3 1-3 1v2l1 8v2c0 7 0 7-2 11l-2 2-2 2c-3 3-5 5-9 5a107 107 0 0 1-15-2h-3l-6 14 10 8 5 7v7c0 9 0 9-3 13l-3 2-3 2-7 5 1 2 4 13h2l6-1h6c4-1 6 0 10 2q6 4.5 9 12l-1 8v6l-1 5 14 6 2-3c7-10 7-10 11-12h10c5 0 8 0 11 3 4 4 6 9 9 13l2-1 13-4v-2c-2-16-2-16 0-21l6-5 2-2c3-3 5-3 9-3l7 1h2l6 1 6-13-7-7c-4-2-7-4-7-8l-1-8v-2c0-4 1-6 3-10l8-6 3-2 2-1-3-10-1-3-1-2h-4l-5 1h-3c-5 0-8 0-12-3l-4-4-2-2-1-2-1-1 1-21-6-3-3-2h-5c-3 1-4 4-6 6l-6 7h-12l-10-1-2-5-3-5-2-2-2-2c-4 0-6 1-9 3"></path>
    <path d="M425 58c10 7 15 16 17 28 1 11-2 21-9 29l-2 2c-5 6-14 11-23 11-12 1-21-1-30-9-8-7-12-16-12-26 0-13 2-22 11-31 14-11 33-14 48-4m-41 19c-3 5-5 11-4 17 2 6 5 12 10 16 7 3 13 4 20 3 7-2 11-7 15-13 2-6 2-11 1-17-3-7-8-12-15-15-10-3-20 0-27 9m48 278c2 3 2 5 2 9v4a2929 2929 0 0 1 1 50c-1 4-3 6-6 8-3 0-6 0-9-2-2-3-1-5-1-8v-4a3819 3819 0 0 1 0-51c0-3 1-5 3-7 4-2 6-1 10 1"></path>
  </svg>
