 <svg xmlns="http://www.w3.org/2000/svg" viewBox="0 0 512 512" fill="white">
    <path d="m73.656 67.703 2.539.052c2.603.06 5.203.15 7.805.245l4.605.139c4.635.154 9.264.373 13.895.611l2.565.131c77.893 4.066 155.083 17.848 230.459 37.628l2.616.686q2.4.63 4.798 1.27c2.017.532 4.037 1.04 6.062 1.535l2.896.715c4.506.414 8.697-.31 13.15-1.008l6.124-.905 3.247-.49c37.6-5.634 75.204-9.156 113.215-10.241q2.4-.072 4.799-.165a454 454 0 0 1 7.003-.203l2.098-.093c3.57-.05 5.37.326 8.402 2.284C512 102 512 102 512.629 104c-.118 3.555-.281 5.484-2.317 8.5-2.72 1.765-4.143 1.626-7.312 1.5l.006 2.172q.066 26.166.098 52.33.014 12.653.047 25.306.03 11.03.037 22.057.003 5.84.023 11.679.02 5.498.015 10.994c.001 1.985.012 3.97.023 5.955l-.008 3.59.005 3.115c-.343 3.906-1.303 6.754-3.933 9.677-3.414 1.66-5.7 1.045-9.313.125-1.692-1.193-1.692-1.193-3-3-.37-2.602-.37-2.602-.36-5.79l-.013-3.658.032-4.02q0-2.113 0-4.227c-.002-3.829.016-7.657.037-11.485.019-4 .02-8 .024-12 .01-7.575.034-15.15.064-22.726.033-8.624.05-17.247.065-25.871.031-17.741.086-35.482.151-53.223l-44 2 1 190 12-12c2.654-2.24 5.21-4.345 8-6.375l2.037-1.501c9.691-6.988 20.514-13.525 32.858-11.655 4.903 1.237 7.873 3.796 10.418 8.031 8.142 16.887 1.902 41.744-3.312 58.759-2.976 9.921-3.605 19.079-3.61 29.393a2673 2673 0 0 1-.05 4.913c-.044 4.256-.064 8.512-.08 12.769-.019 4.364-.06 8.729-.1 13.094-.076 8.524-.126 17.048-.161 25.572l2.852-.094C508 428 508 428 510.375 429.5c1.956 3.009 2.137 4.987 2.254 8.5-1.06 3.373-2.57 4.198-5.629 6-4.132.611-8.242.539-12.412.508l-3.863.019c-3.537.017-7.073.008-10.61-.004-3.814-.01-7.629.005-11.443.016-7.472.018-14.944.014-22.416.002a8264 8264 0 0 0-18.216-.006l-2.618.002-5.264.004c-16.459.011-32.918-.002-49.376-.023a16485 16485 0 0 0-42.379.003 23951 23951 0 0 1-54.443.014l-2.606-.002q-9.098-.003-18.197.012-11.085.017-22.172-.013c-3.772-.01-7.543-.015-11.315-.001-4.086.014-8.172-.003-12.258-.023l-3.624.027c-4.596-.044-7.88-.08-12.026-2.157-2.33-3.146-2.379-5.03-2.363-8.933l-.013-1.99c-.008-2.2.019-4.397.046-6.597q.003-2.365-.002-4.73c-.001-4.281.028-8.561.063-12.842.031-4.474.034-8.947.04-13.421.016-8.472.057-16.943.107-25.414.066-11.448.093-22.895.122-34.343.047-18.036.147-36.072.238-54.108h-74v148h55c4 4 4 4 4.566 6l-.004 2 .067 2c-.994 3.16-2.908 4.204-5.629 6-3.178.503-3.178.503-6.832.508l-2.044.019c-2.253.016-4.505.003-6.759-.01a1871 1871 0 0 1-18.026.02c-4.595-.01-9.19 0-13.786.006q-11.576.01-23.151-.022c-8.921-.021-17.842-.014-26.763.008q-11.49.026-22.981.01c-4.575-.006-9.15-.007-13.725.006q-6.452.017-12.903-.02a530 530 0 0 0-4.734.006c-2.156.01-4.31-.003-6.464-.023l-3.654-.005c-3.8-.601-5.47-1.82-8.178-4.503-.865-2.751-.614-5.197 0-8 1.625-2.5 1.625-2.5 4-4h6V240l-7-1c-1.938-1.063-1.938-1.063-3-3-.61-5.495-.61-5.495 0-8 3.153-3.772 6.978-5.773 11.316-7.906l2.185-1.097c2.35-1.175 4.705-2.337 7.062-3.497l2.423-1.203c10.769-5.341 21.6-10.52 32.576-15.422l3.4-1.521C66.61 194 66.61 194 70 194l-.027-1.802c-.088-6.18-.149-12.36-.193-18.541q-.03-3.462-.082-6.923c-.048-3.314-.07-6.627-.089-9.941l-.062-3.135-.001-2.911-.027-2.564C70 146 70 146 71.809 144.227c3.2-1.792 5.59-1.613 9.191-1.227 2.375 1.188 2.375 1.188 4 3 1.193 4.317 1.216 8.696 1.316 13.145l.063 2.332q.097 3.667.183 7.335l.131 4.99q.16 6.099.307 12.198l1.999-.803C161.115 156.31 235.801 134.194 312 119c-8.661-3.162-17.581-5.119-26.563-7.125l-2.617-.586C217.942 96.829 152.406 87.81 86 85c.01 1.064.02 2.129.032 3.225.036 3.96.059 7.92.078 11.881q.015 2.568.04 5.136c.025 2.465.037 4.93.045 7.395l.032 2.308c0 4.13-.282 7.38-2.227 11.055-2.425 2.425-3.62 2.686-7 3-3.097-.936-4.704-1.704-7-4-.176-3.085-.231-6.08-.195-9.164l.008-2.75c.011-2.903.037-5.807.062-8.711q.016-2.949.027-5.898Q69.937 91.239 70 84c-.941.03-1.882.062-2.852.094C64 84 64 84 61.625 82.5c-1.956-3.009-2.137-4.987-2.254-8.5 2.116-6.73 8.465-6.522 14.285-6.297m334.434 52.378q-3.024.356-6.05.707-4.347.506-8.692 1.02l-2.743.316-2.538.303-2.239.263c-1.919.234-1.919.234-3.828 1.31v138c2.432-2.432 4.256-4.675 6.25-7.438 3.956-5.121 7.422-7.477 13.625-9.5 6.73-.134 11.598 2.047 16.438 6.688 3.239 3.491 5.562 7 7.687 11.25h1V118c-6.226 0-12.723 1.351-18.91 2.081m-48.07 6.546-2.407.415-2.586.454-2.663.464q-2.786.487-5.57.976-4.272.748-8.546 1.488l-5.408.947-2.592.448c-4.247.685-4.247.685-8.248 2.181l-.004 2.178q-.055 26.214-.18 52.428c-.04 8.45-.072 16.902-.087 25.353q-.019 11.048-.084 22.094c-.022 3.9-.038 7.801-.037 11.702q0 5.505-.05 11.01c-.012 1.992-.005 3.985.003 5.977l-.042 3.582-.011 3.12C321 274 321 274 319.194 275.866c-3.298 1.704-5.672.982-9.194.134-2.626-2.626-2.258-3.778-2.278-7.442l-.034-3.501-.007-3.86-.03-4.05a2697 2697 0 0 1-.056-11.014c-.015-3.834-.042-7.669-.068-11.503-.047-7.264-.083-14.528-.116-21.791-.039-8.269-.088-16.537-.138-24.805Q307.119 162.516 307 137c-3.752.72-7.501 1.453-11.25 2.188l-3.105.595C282.298 141.821 272.28 144.43 262 147v281h35l-7-11c-1.68-3.22-3.285-6.401-4.813-9.688-.38-.79-.761-1.579-1.154-2.392-3.504-7.445-5.322-14.222-5.408-22.545l-.086-3.79c.54-4.205 1.821-6.308 4.461-9.585 4.426-3.13 8.062-4.152 13.438-4.188l2.87-.042c5.3.33 10.47 1.29 15.692 2.23l-.519-2.149c-12.503-52.068-12.503-52.068-3.106-68.288 1.842-2.942 3.331-4.39 6.625-5.563 15.38-1.666 25.884 3.943 37.686 13.343a424 424 0 0 1 8.013 6.75c1.931 2.013 1.931 2.013 3.301 1.907V126c-2.49 0-4.55.204-6.98.627M237.284 153.02l-2.391.648q-3.918 1.066-7.832 2.144l-2.728.751A1173 1173 0 0 0 170 173l-2.527.829C91.566 194.309 91.566 194.309 25 232a177 177 0 0 0-.12 7.561l-.003 2.428q-.001 4.059.01 8.117l-.001 5.793q.001 7.89.013 15.78.007 8.237.008 16.472.005 15.608.021 31.216.016 17.764.022 35.528.016 36.553.05 73.105h45V280l-7-2c-2.593-2.593-2.277-4.487-2.363-8.027.484-2.632 1.234-3.36 3.363-4.973 2.657-.378 2.657-.378 5.921-.381l3.748-.026 4.118.019q2.166-.007 4.332-.016c3.923-.014 7.846-.008 11.77.001 4.103.008 8.205 0 12.308-.004q10.335-.007 20.67.016c7.97.016 15.94.01 23.91-.006a6537 6537 0 0 1 20.515-.007q6.129.008 12.259-.005 5.761-.013 11.524.015 2.115.006 4.234-.004c1.923-.008 3.846.004 5.77.017l3.264.003c2.657.378 2.657.378 4.5 1.78 1.838 2.537 1.631 4.688 1.509 7.727C214 276 214 276 212.312 277.937 210 279 210 279 205 280v148h42V151c-3.344 0-6.507 1.144-9.715 2.02ZM403 261c-16.363 17.179-19.98 46.002-21.23 68.574l-.18 2.805-.13 2.486c-.567 2.63-1.31 3.545-3.46 5.135-3.295.6-4.878.855-8 0-2.99-2.22-5.244-4.966-7.625-7.813C351.792 320.29 340.823 311.135 326 305h-2c-7.62 20.477 2.286 49.902 10.208 69.22 1.982 5.13 1.908 8.52.792 13.78-2.313 2.224-3.818 2-7 2-3.6-.63-6.524-2.195-9.75-3.875-7.781-4.051-15.41-6.714-24.25-6.125-1.181 12.049 5.586 23.283 11.863 33.136 1.053 1.726 1.986 3.525 2.907 5.326 3.215 5.111 6.086 8.697 12.1 10.306 8.34 1.234 16.764 1.172 25.176 1.11 2.968-.015 5.934.011 8.902.037 7.004.058 14.006.05 21.01 0 7.204-.052 14.401.006 21.604.119 6.209.093 12.416.12 18.625.094 3.698-.015 7.393-.006 11.09.067 14.703.942 14.703.942 27.915-3.862 3.452-3.96 5.443-8.31 7.093-13.26 1.024-2.97 2.489-5.67 3.965-8.436q1.394-2.965 2.75-5.95l1.509-3.302C493.71 344.945 493.71 344.945 495 291c-12.873 3.545-22.247 11.262-32 20l-2.148 1.89c-7.834 7.339-14.267 16.535-20.394 25.32C439 340 439 340 436.808 340.46c-.782-.027-1.564-.056-2.37-.085l-2.38-.04C430 340 430 340 428 338c-1.105-3.036-1.135-6.07-1.239-9.277-.736-21.002-4.416-49.886-19.511-65.91-2.028-2.022-2.028-2.022-4.25-1.813M85 280v148h15V280zm401 118a19690 19690 0 0 0-7.37 15.238l-4.323 8.943c-1.365 2.806-1.365 2.806-2.307 5.819h15v-30z"></path>
  </svg>
